<svg width="1480" height="1114" version="1.1" xmlns="http://www.w3.org/2000/svg" xmlns:xlink="http://www.w3.org/1999/xlink" stroke-width="2"> <link xmlns="http://www.w3.org/1999/xhtml" href="calendar.css" rel="stylesheet" type="text/css" stroke-width="2"></link> <script href="calendar.js" type="text/javascript" stroke-width="2"></script> <rect width="1480" height="1114" x="0" y="0" stroke="green" fill="transparent" stroke-width="2"></rect> <rect width="350" height="350" x="16" y="16" class="month-box" stroke-width="2"></rect> <text class="month-text" y="191" x="191" font-size="200" stroke-width="2"> 1</text> <text class="day-text" y="66" x="266" font-size="12.5" stroke-width="2">  1</text> <text class="day-text" y="66" x="316" font-size="12.5" stroke-width="2">  2</text> <text class="day-text" y="66" x="366" font-size="12.5" stroke-width="2">  3</text> <text class="day-text" y="116" x="66" font-size="12.5" stroke-width="2">  4</text> <text class="day-text" y="116" x="116" font-size="12.5" stroke-width="2">  5</text> <text class="day-text" y="116" x="166" font-size="12.5" stroke-width="2">  6</text> <text class="day-text" y="116" x="216" font-size="12.5" stroke-width="2">  7</text> <text class="day-text" y="116" x="266" font-size="12.5" stroke-width="2">  8</text> <text class="day-text" y="116" x="316" font-size="12.5" stroke-width="2">  9</text> <text class="day-text" y="116" x="366" font-size="12.5" stroke-width="2"> 10</text> <text class="day-text" y="166" x="66" font-size="12.5" stroke-width="2"> 11</text> <text class="day-text" y="166" x="116" font-size="12.5" stroke-width="2"> 12</text> <text class="day-text" y="166" x="166" font-size="12.5" stroke-width="2"> 13</text> <text class="day-text" y="166" x="216" font-size="12.5" stroke-width="2"> 14</text> <text class="day-text" y="166" x="266" font-size="12.5" stroke-width="2"> 15</text> <text class="day-text" y="166" x="316" font-size="12.5" stroke-width="2"> 16</text> <text class="day-text" y="166" x="366" font-size="12.5" stroke-width="2"> 17</text> <text class="day-text" y="216" x="66" font-size="12.5" stroke-width="2"> 18</text> <text class="day-text" y="216" x="116" font-size="12.5" stroke-width="2"> 19</text> <text class="day-text" y="216" x="166" font-size="12.5" stroke-width="2"> 20</text> <text class="day-text" y="216" x="216" font-size="12.5" stroke-width="2"> 21</text> <text class="day-text" y="216" x="266" font-size="12.5" stroke-width="2"> 22</text> <text class="day-text" y="216" x="316" font-size="12.5" stroke-width="2"> 23</text> <text class="day-text" y="216" x="366" font-size="12.5" stroke-width="2"> 24</text> <text class="day-text" y="266" x="66" font-size="12.5" stroke-width="2"> 25</text> <text class="day-text" y="266" x="116" font-size="12.5" stroke-width="2"> 26</text> <text class="day-text" y="266" x="166" font-size="12.5" stroke-width="2"> 27</text> <text class="day-text" y="266" x="216" font-size="12.5" stroke-width="2"> 28</text> <text class="day-text" y="266" x="266" font-size="12.5" stroke-width="2"> 29</text> <text class="day-text" y="266" x="316" font-size="12.5" stroke-width="2"> 30</text> <text class="day-text" y="266" x="366" font-size="12.5" stroke-width="2"> 31</text> <polygon points="216 66, 366 66, 366 266, 366 266, 366 316, 16 316, 16 116, 216 116" class="month-frame" stroke-width="2"></polygon> <polygon points="266 66, 366 66, 366 266, 366 266, 366 316, 266 316, 266 116, 266 116" class="weekend-frame" stroke-width="2"></polygon> <line x1="66" x2="66" y1="116" y2="316" class="day-frame" stroke-width="2"></line> <line x1="116" x2="116" y1="116" y2="316" class="day-frame" stroke-width="2"></line> <line x1="166" x2="166" y1="116" y2="316" class="day-frame" stroke-width="2"></line> <line x1="216" x2="216" y1="116" y2="316" class="day-frame" stroke-width="2"></line> <line x1="266" x2="266" y1="66" y2="316" class="day-frame" stroke-width="2"></line> <line x1="316" x2="316" y1="66" y2="316" class="day-frame" stroke-width="2"></line> <line x1="216" x2="366" y1="116" y2="116" class="day-frame" stroke-width="2"></line> <line x1="16" x2="366" y1="166" y2="166" class="day-frame" stroke-width="2"></line> <line x1="16" x2="366" y1="216" y2="216" class="day-frame" stroke-width="2"></line> <line x1="16" x2="366" y1="266" y2="266" class="day-frame" stroke-width="2"></line> <rect width="350" height="350" x="382" y="16" class="month-box" stroke-width="2"></rect> <text class="month-text" y="191" x="557" font-size="200" stroke-width="2"> 2</text> <text class="day-text" y="66" x="432" font-size="12.5" stroke-width="2">  1</text> <text class="day-text" y="66" x="482" font-size="12.5" stroke-width="2">  2</text> <text class="day-text" y="66" x="532" font-size="12.5" stroke-width="2">  3</text> <text class="day-text" y="66" x="582" font-size="12.5" stroke-width="2">  4</text> <text class="day-text" y="66" x="632" font-size="12.5" stroke-width="2">  5</text> <text class="day-text" y="66" x="682" font-size="12.5" stroke-width="2">  6</text> <text class="day-text" y="66" x="732" font-size="12.5" stroke-width="2">  7</text> <text class="day-text" y="116" x="432" font-size="12.5" stroke-width="2">  8</text> <text class="day-text" y="116" x="482" font-size="12.5" stroke-width="2">  9</text> <text class="day-text" y="116" x="532" font-size="12.5" stroke-width="2"> 10</text> <text class="day-text" y="116" x="582" font-size="12.5" stroke-width="2"> 11</text> <text class="day-text" y="116" x="632" font-size="12.5" stroke-width="2"> 12</text> <text class="day-text" y="116" x="682" font-size="12.5" stroke-width="2"> 13</text> <text class="day-text" y="116" x="732" font-size="12.5" stroke-width="2"> 14</text> <text class="day-text" y="166" x="432" font-size="12.5" stroke-width="2"> 15</text> <text class="day-text" y="166" x="482" font-size="12.5" stroke-width="2"> 16</text> <text class="day-text" y="166" x="532" font-size="12.5" stroke-width="2"> 17</text> <text class="day-text" y="166" x="582" font-size="12.5" stroke-width="2"> 18</text> <text class="day-text" y="166" x="632" font-size="12.5" stroke-width="2"> 19</text> <text class="day-text" y="166" x="682" font-size="12.5" stroke-width="2"> 20</text> <text class="day-text" y="166" x="732" font-size="12.5" stroke-width="2"> 21</text> <text class="day-text" y="216" x="432" font-size="12.5" stroke-width="2"> 22</text> <text class="day-text" y="216" x="482" font-size="12.5" stroke-width="2"> 23</text> <text class="day-text" y="216" x="532" font-size="12.5" stroke-width="2"> 24</text> <text class="day-text" y="216" x="582" font-size="12.5" stroke-width="2"> 25</text> <text class="day-text" y="216" x="632" font-size="12.5" stroke-width="2"> 26</text> <text class="day-text" y="216" x="682" font-size="12.5" stroke-width="2"> 27</text> <text class="day-text" y="216" x="732" font-size="12.5" stroke-width="2"> 28</text> <polygon points="382 66, 732 66, 732 216, 732 216, 732 266, 382 266, 382 116, 382 116" class="month-frame" stroke-width="2"></polygon> <polygon points="632 66, 732 66, 732 216, 732 216, 732 266, 632 266, 632 116, 632 116" class="weekend-frame" stroke-width="2"></polygon> <line x1="432" x2="432" y1="66" y2="266" class="day-frame" stroke-width="2"></line> <line x1="482" x2="482" y1="66" y2="266" class="day-frame" stroke-width="2"></line> <line x1="532" x2="532" y1="66" y2="266" class="day-frame" stroke-width="2"></line> <line x1="582" x2="582" y1="66" y2="266" class="day-frame" stroke-width="2"></line> <line x1="632" x2="632" y1="66" y2="266" class="day-frame" stroke-width="2"></line> <line x1="682" x2="682" y1="66" y2="266" class="day-frame" stroke-width="2"></line> <line x1="382" x2="732" y1="116" y2="116" class="day-frame" stroke-width="2"></line> <line x1="382" x2="732" y1="166" y2="166" class="day-frame" stroke-width="2"></line> <line x1="382" x2="732" y1="216" y2="216" class="day-frame" stroke-width="2"></line> <rect width="350" height="350" x="748" y="16" class="month-box" stroke-width="2"></rect> <text class="month-text" y="191" x="923" font-size="200" stroke-width="2"> 3</text> <text class="day-text" y="66" x="798" font-size="12.5" stroke-width="2">  1</text> <text class="day-text" y="66" x="848" font-size="12.5" stroke-width="2">  2</text> <text class="day-text" y="66" x="898" font-size="12.5" stroke-width="2">  3</text> <text class="day-text" y="66" x="948" font-size="12.5" stroke-width="2">  4</text> <text class="day-text" y="66" x="998" font-size="12.5" stroke-width="2">  5</text> <text class="day-text" y="66" x="1048" font-size="12.5" stroke-width="2">  6</text> <text class="day-text" y="66" x="1098" font-size="12.5" stroke-width="2">  7</text> <text class="day-text" y="116" x="798" font-size="12.5" stroke-width="2">  8</text> <text class="day-text" y="116" x="848" font-size="12.5" stroke-width="2">  9</text> <text class="day-text" y="116" x="898" font-size="12.5" stroke-width="2"> 10</text> <text class="day-text" y="116" x="948" font-size="12.5" stroke-width="2"> 11</text> <text class="day-text" y="116" x="998" font-size="12.5" stroke-width="2"> 12</text> <text class="day-text" y="116" x="1048" font-size="12.5" stroke-width="2"> 13</text> <text class="day-text" y="116" x="1098" font-size="12.5" stroke-width="2"> 14</text> <text class="day-text" y="166" x="798" font-size="12.5" stroke-width="2"> 15</text> <text class="day-text" y="166" x="848" font-size="12.5" stroke-width="2"> 16</text> <text class="day-text" y="166" x="898" font-size="12.5" stroke-width="2"> 17</text> <text class="day-text" y="166" x="948" font-size="12.5" stroke-width="2"> 18</text> <text class="day-text" y="166" x="998" font-size="12.5" stroke-width="2"> 19</text> <text class="day-text" y="166" x="1048" font-size="12.5" stroke-width="2"> 20</text> <text class="day-text" y="166" x="1098" font-size="12.5" stroke-width="2"> 21</text> <text class="day-text" y="216" x="798" font-size="12.5" stroke-width="2"> 22</text> <text class="day-text" y="216" x="848" font-size="12.5" stroke-width="2"> 23</text> <text class="day-text" y="216" x="898" font-size="12.5" stroke-width="2"> 24</text> <text class="day-text" y="216" x="948" font-size="12.5" stroke-width="2"> 25</text> <text class="day-text" y="216" x="998" font-size="12.5" stroke-width="2"> 26</text> <text class="day-text" y="216" x="1048" font-size="12.5" stroke-width="2"> 27</text> <text class="day-text" y="216" x="1098" font-size="12.5" stroke-width="2"> 28</text> <text class="day-text" y="266" x="798" font-size="12.5" stroke-width="2"> 29</text> <text class="day-text" y="266" x="848" font-size="12.5" stroke-width="2"> 30</text> <text class="day-text" y="266" x="898" font-size="12.5" stroke-width="2"> 31</text> <polygon points="748 66, 1098 66, 1098 266, 898 266, 898 316, 748 316, 748 116, 748 116" class="month-frame" stroke-width="2"></polygon> <polygon points="998 66, 1098 66, 1098 266, 998 266, 998 316, 998 316, 998 116, 998 116" class="weekend-frame" stroke-width="2"></polygon> <line x1="798" x2="798" y1="66" y2="316" class="day-frame" stroke-width="2"></line> <line x1="848" x2="848" y1="66" y2="316" class="day-frame" stroke-width="2"></line> <line x1="898" x2="898" y1="66" y2="266" class="day-frame" stroke-width="2"></line> <line x1="948" x2="948" y1="66" y2="266" class="day-frame" stroke-width="2"></line> <line x1="998" x2="998" y1="66" y2="266" class="day-frame" stroke-width="2"></line> <line x1="1048" x2="1048" y1="66" y2="266" class="day-frame" stroke-width="2"></line> <line x1="748" x2="1098" y1="116" y2="116" class="day-frame" stroke-width="2"></line> <line x1="748" x2="1098" y1="166" y2="166" class="day-frame" stroke-width="2"></line> <line x1="748" x2="1098" y1="216" y2="216" class="day-frame" stroke-width="2"></line> <line x1="748" x2="898" y1="266" y2="266" class="day-frame" stroke-width="2"></line> <rect width="350" height="350" x="1114" y="16" class="month-box" stroke-width="2"></rect> <text class="month-text" y="191" x="1289" font-size="200" stroke-width="2"> 4</text> <text class="day-text" y="66" x="1314" font-size="12.5" stroke-width="2">  1</text> <text class="day-text" y="66" x="1364" font-size="12.5" stroke-width="2">  2</text> <text class="day-text" y="66" x="1414" font-size="12.5" stroke-width="2">  3</text> <text class="day-text" y="66" x="1464" font-size="12.5" stroke-width="2">  4</text> <text class="day-text" y="116" x="1164" font-size="12.5" stroke-width="2">  5</text> <text class="day-text" y="116" x="1214" font-size="12.5" stroke-width="2">  6</text> <text class="day-text" y="116" x="1264" font-size="12.5" stroke-width="2">  7</text> <text class="day-text" y="116" x="1314" font-size="12.5" stroke-width="2">  8</text> <text class="day-text" y="116" x="1364" font-size="12.5" stroke-width="2">  9</text> <text class="day-text" y="116" x="1414" font-size="12.5" stroke-width="2"> 10</text> <text class="day-text" y="116" x="1464" font-size="12.5" stroke-width="2"> 11</text> <text class="day-text" y="166" x="1164" font-size="12.5" stroke-width="2"> 12</text> <text class="day-text" y="166" x="1214" font-size="12.5" stroke-width="2"> 13</text> <text class="day-text" y="166" x="1264" font-size="12.5" stroke-width="2"> 14</text> <text class="day-text" y="166" x="1314" font-size="12.5" stroke-width="2"> 15</text> <text class="day-text" y="166" x="1364" font-size="12.5" stroke-width="2"> 16</text> <text class="day-text" y="166" x="1414" font-size="12.5" stroke-width="2"> 17</text> <text class="day-text" y="166" x="1464" font-size="12.5" stroke-width="2"> 18</text> <text class="day-text" y="216" x="1164" font-size="12.5" stroke-width="2"> 19</text> <text class="day-text" y="216" x="1214" font-size="12.5" stroke-width="2"> 20</text> <text class="day-text" y="216" x="1264" font-size="12.5" stroke-width="2"> 21</text> <text class="day-text" y="216" x="1314" font-size="12.5" stroke-width="2"> 22</text> <text class="day-text" y="216" x="1364" font-size="12.5" stroke-width="2"> 23</text> <text class="day-text" y="216" x="1414" font-size="12.5" stroke-width="2"> 24</text> <text class="day-text" y="216" x="1464" font-size="12.5" stroke-width="2"> 25</text> <text class="day-text" y="266" x="1164" font-size="12.5" stroke-width="2"> 26</text> <text class="day-text" y="266" x="1214" font-size="12.5" stroke-width="2"> 27</text> <text class="day-text" y="266" x="1264" font-size="12.5" stroke-width="2"> 28</text> <text class="day-text" y="266" x="1314" font-size="12.5" stroke-width="2"> 29</text> <text class="day-text" y="266" x="1364" font-size="12.5" stroke-width="2"> 30</text> <polygon points="1264 66, 1464 66, 1464 266, 1364 266, 1364 316, 1114 316, 1114 116, 1264 116" class="month-frame" stroke-width="2"></polygon> <polygon points="1364 66, 1464 66, 1464 266, 1364 266, 1364 316, 1364 316, 1364 116, 1364 116" class="weekend-frame" stroke-width="2"></polygon> <line x1="1164" x2="1164" y1="116" y2="316" class="day-frame" stroke-width="2"></line> <line x1="1214" x2="1214" y1="116" y2="316" class="day-frame" stroke-width="2"></line> <line x1="1264" x2="1264" y1="116" y2="316" class="day-frame" stroke-width="2"></line> <line x1="1314" x2="1314" y1="66" y2="316" class="day-frame" stroke-width="2"></line> <line x1="1364" x2="1364" y1="66" y2="266" class="day-frame" stroke-width="2"></line> <line x1="1414" x2="1414" y1="66" y2="266" class="day-frame" stroke-width="2"></line> <line x1="1264" x2="1464" y1="116" y2="116" class="day-frame" stroke-width="2"></line> <line x1="1114" x2="1464" y1="166" y2="166" class="day-frame" stroke-width="2"></line> <line x1="1114" x2="1464" y1="216" y2="216" class="day-frame" stroke-width="2"></line> <line x1="1114" x2="1364" y1="266" y2="266" class="day-frame" stroke-width="2"></line> <rect width="350" height="350" x="16" y="382" class="month-box" stroke-width="2"></rect> <text class="month-text" y="557" x="191" font-size="200" stroke-width="2"> 5</text> <text class="day-text" y="432" x="316" font-size="12.5" stroke-width="2">  1</text> <text class="day-text" y="432" x="366" font-size="12.5" stroke-width="2">  2</text> <text class="day-text" y="482" x="66" font-size="12.5" stroke-width="2">  3</text> <text class="day-text" y="482" x="116" font-size="12.5" stroke-width="2">  4</text> <text class="day-text" y="482" x="166" font-size="12.5" stroke-width="2">  5</text> <text class="day-text" y="482" x="216" font-size="12.5" stroke-width="2">  6</text> <text class="day-text" y="482" x="266" font-size="12.5" stroke-width="2">  7</text> <text class="day-text" y="482" x="316" font-size="12.5" stroke-width="2">  8</text> <text class="day-text" y="482" x="366" font-size="12.5" stroke-width="2">  9</text> <text class="day-text" y="532" x="66" font-size="12.5" stroke-width="2"> 10</text> <text class="day-text" y="532" x="116" font-size="12.5" stroke-width="2"> 11</text> <text class="day-text" y="532" x="166" font-size="12.5" stroke-width="2"> 12</text> <text class="day-text" y="532" x="216" font-size="12.5" stroke-width="2"> 13</text> <text class="day-text" y="532" x="266" font-size="12.5" stroke-width="2"> 14</text> <text class="day-text" y="532" x="316" font-size="12.5" stroke-width="2"> 15</text> <text class="day-text" y="532" x="366" font-size="12.5" stroke-width="2"> 16</text> <text class="day-text" y="582" x="66" font-size="12.5" stroke-width="2"> 17</text> <text class="day-text" y="582" x="116" font-size="12.5" stroke-width="2"> 18</text> <text class="day-text" y="582" x="166" font-size="12.5" stroke-width="2"> 19</text> <text class="day-text" y="582" x="216" font-size="12.5" stroke-width="2"> 20</text> <text class="day-text" y="582" x="266" font-size="12.5" stroke-width="2"> 21</text> <text class="day-text" y="582" x="316" font-size="12.5" stroke-width="2"> 22</text> <text class="day-text" y="582" x="366" font-size="12.5" stroke-width="2"> 23</text> <text class="day-text" y="632" x="66" font-size="12.5" stroke-width="2"> 24</text> <text class="day-text" y="632" x="116" font-size="12.5" stroke-width="2"> 25</text> <text class="day-text" y="632" x="166" font-size="12.5" stroke-width="2"> 26</text> <text class="day-text" y="632" x="216" font-size="12.5" stroke-width="2"> 27</text> <text class="day-text" y="632" x="266" font-size="12.5" stroke-width="2"> 28</text> <text class="day-text" y="632" x="316" font-size="12.5" stroke-width="2"> 29</text> <text class="day-text" y="632" x="366" font-size="12.5" stroke-width="2"> 30</text> <text class="day-text" y="682" x="66" font-size="12.5" stroke-width="2"> 31</text> <polygon points="266 432, 366 432, 366 682, 66 682, 66 732, 16 732, 16 482, 266 482" class="month-frame" stroke-width="2"></polygon> <polygon points="266 432, 366 432, 366 682, 266 682, 266 732, 266 732, 266 482, 266 482" class="weekend-frame" stroke-width="2"></polygon> <line x1="66" x2="66" y1="482" y2="682" class="day-frame" stroke-width="2"></line> <line x1="116" x2="116" y1="482" y2="682" class="day-frame" stroke-width="2"></line> <line x1="166" x2="166" y1="482" y2="682" class="day-frame" stroke-width="2"></line> <line x1="216" x2="216" y1="482" y2="682" class="day-frame" stroke-width="2"></line> <line x1="266" x2="266" y1="482" y2="682" class="day-frame" stroke-width="2"></line> <line x1="316" x2="316" y1="432" y2="682" class="day-frame" stroke-width="2"></line> <line x1="266" x2="366" y1="482" y2="482" class="day-frame" stroke-width="2"></line> <line x1="16" x2="366" y1="532" y2="532" class="day-frame" stroke-width="2"></line> <line x1="16" x2="366" y1="582" y2="582" class="day-frame" stroke-width="2"></line> <line x1="16" x2="366" y1="632" y2="632" class="day-frame" stroke-width="2"></line> <line x1="16" x2="66" y1="682" y2="682" class="day-frame" stroke-width="2"></line> <rect width="350" height="350" x="382" y="382" class="month-box" stroke-width="2"></rect> <text class="month-text" y="557" x="557" font-size="200" stroke-width="2"> 6</text> <text class="day-text" y="432" x="482" font-size="12.5" stroke-width="2">  1</text> <text class="day-text" y="432" x="532" font-size="12.5" stroke-width="2">  2</text> <text class="day-text" y="432" x="582" font-size="12.5" stroke-width="2">  3</text> <text class="day-text" y="432" x="632" font-size="12.5" stroke-width="2">  4</text> <text class="day-text" y="432" x="682" font-size="12.5" stroke-width="2">  5</text> <text class="day-text" y="432" x="732" font-size="12.5" stroke-width="2">  6</text> <text class="day-text" y="482" x="432" font-size="12.5" stroke-width="2">  7</text> <text class="day-text" y="482" x="482" font-size="12.5" stroke-width="2">  8</text> <text class="day-text" y="482" x="532" font-size="12.5" stroke-width="2">  9</text> <text class="day-text" y="482" x="582" font-size="12.5" stroke-width="2"> 10</text> <text class="day-text" y="482" x="632" font-size="12.5" stroke-width="2"> 11</text> <text class="day-text" y="482" x="682" font-size="12.5" stroke-width="2"> 12</text> <text class="day-text" y="482" x="732" font-size="12.5" stroke-width="2"> 13</text> <text class="day-text" y="532" x="432" font-size="12.5" stroke-width="2"> 14</text> <text class="day-text" y="532" x="482" font-size="12.5" stroke-width="2"> 15</text> <text class="day-text" y="532" x="532" font-size="12.5" stroke-width="2"> 16</text> <text class="day-text" y="532" x="582" font-size="12.5" stroke-width="2"> 17</text> <text class="day-text" y="532" x="632" font-size="12.5" stroke-width="2"> 18</text> <text class="day-text" y="532" x="682" font-size="12.5" stroke-width="2"> 19</text> <text class="day-text" y="532" x="732" font-size="12.5" stroke-width="2"> 20</text> <text class="day-text" y="582" x="432" font-size="12.5" stroke-width="2"> 21</text> <text class="day-text" y="582" x="482" font-size="12.5" stroke-width="2"> 22</text> <text class="day-text" y="582" x="532" font-size="12.5" stroke-width="2"> 23</text> <text class="day-text" y="582" x="582" font-size="12.5" stroke-width="2"> 24</text> <text class="day-text" y="582" x="632" font-size="12.5" stroke-width="2"> 25</text> <text class="day-text" y="582" x="682" font-size="12.5" stroke-width="2"> 26</text> <text class="day-text" y="582" x="732" font-size="12.5" stroke-width="2"> 27</text> <text class="day-text" y="632" x="432" font-size="12.5" stroke-width="2"> 28</text> <text class="day-text" y="632" x="482" font-size="12.5" stroke-width="2"> 29</text> <text class="day-text" y="632" x="532" font-size="12.5" stroke-width="2"> 30</text> <polygon points="432 432, 732 432, 732 632, 532 632, 532 682, 382 682, 382 482, 432 482" class="month-frame" stroke-width="2"></polygon> <polygon points="632 432, 732 432, 732 632, 632 632, 632 682, 632 682, 632 482, 632 482" class="weekend-frame" stroke-width="2"></polygon> <line x1="432" x2="432" y1="482" y2="682" class="day-frame" stroke-width="2"></line> <line x1="482" x2="482" y1="432" y2="682" class="day-frame" stroke-width="2"></line> <line x1="532" x2="532" y1="432" y2="632" class="day-frame" stroke-width="2"></line> <line x1="582" x2="582" y1="432" y2="632" class="day-frame" stroke-width="2"></line> <line x1="632" x2="632" y1="432" y2="632" class="day-frame" stroke-width="2"></line> <line x1="682" x2="682" y1="432" y2="632" class="day-frame" stroke-width="2"></line> <line x1="432" x2="732" y1="482" y2="482" class="day-frame" stroke-width="2"></line> <line x1="382" x2="732" y1="532" y2="532" class="day-frame" stroke-width="2"></line> <line x1="382" x2="732" y1="582" y2="582" class="day-frame" stroke-width="2"></line> <line x1="382" x2="532" y1="632" y2="632" class="day-frame" stroke-width="2"></line> <rect width="350" height="350" x="748" y="382" class="month-box" stroke-width="2"></rect> <text class="month-text" y="557" x="923" font-size="200" stroke-width="2"> 7</text> <text class="day-text" y="432" x="948" font-size="12.5" stroke-width="2">  1</text> <text class="day-text" y="432" x="998" font-size="12.5" stroke-width="2">  2</text> <text class="day-text" y="432" x="1048" font-size="12.5" stroke-width="2">  3</text> <text class="day-text" y="432" x="1098" font-size="12.5" stroke-width="2">  4</text> <text class="day-text" y="482" x="798" font-size="12.5" stroke-width="2">  5</text> <text class="day-text" y="482" x="848" font-size="12.5" stroke-width="2">  6</text> <text class="day-text" y="482" x="898" font-size="12.5" stroke-width="2">  7</text> <text class="day-text" y="482" x="948" font-size="12.5" stroke-width="2">  8</text> <text class="day-text" y="482" x="998" font-size="12.5" stroke-width="2">  9</text> <text class="day-text" y="482" x="1048" font-size="12.5" stroke-width="2"> 10</text> <text class="day-text" y="482" x="1098" font-size="12.5" stroke-width="2"> 11</text> <text class="day-text" y="532" x="798" font-size="12.5" stroke-width="2"> 12</text> <text class="day-text" y="532" x="848" font-size="12.5" stroke-width="2"> 13</text> <text class="day-text" y="532" x="898" font-size="12.5" stroke-width="2"> 14</text> <text class="day-text" y="532" x="948" font-size="12.5" stroke-width="2"> 15</text> <text class="day-text" y="532" x="998" font-size="12.5" stroke-width="2"> 16</text> <text class="day-text" y="532" x="1048" font-size="12.5" stroke-width="2"> 17</text> <text class="day-text" y="532" x="1098" font-size="12.5" stroke-width="2"> 18</text> <text class="day-text" y="582" x="798" font-size="12.5" stroke-width="2"> 19</text> <text class="day-text" y="582" x="848" font-size="12.5" stroke-width="2"> 20</text> <text class="day-text" y="582" x="898" font-size="12.5" stroke-width="2"> 21</text> <text class="day-text" y="582" x="948" font-size="12.5" stroke-width="2"> 22</text> <text class="day-text" y="582" x="998" font-size="12.5" stroke-width="2"> 23</text> <text class="day-text" y="582" x="1048" font-size="12.5" stroke-width="2"> 24</text> <text class="day-text" y="582" x="1098" font-size="12.5" stroke-width="2"> 25</text> <text class="day-text" y="632" x="798" font-size="12.5" stroke-width="2"> 26</text> <text class="day-text" y="632" x="848" font-size="12.5" stroke-width="2"> 27</text> <text class="day-text" y="632" x="898" font-size="12.5" stroke-width="2"> 28</text> <text class="day-text" y="632" x="948" font-size="12.5" stroke-width="2"> 29</text> <text class="day-text" y="632" x="998" font-size="12.5" stroke-width="2"> 30</text> <text class="day-text" y="632" x="1048" font-size="12.5" stroke-width="2"> 31</text> <polygon points="898 432, 1098 432, 1098 632, 1048 632, 1048 682, 748 682, 748 482, 898 482" class="month-frame" stroke-width="2"></polygon> <polygon points="998 432, 1098 432, 1098 632, 1048 632, 1048 682, 998 682, 998 482, 998 482" class="weekend-frame" stroke-width="2"></polygon> <line x1="798" x2="798" y1="482" y2="682" class="day-frame" stroke-width="2"></line> <line x1="848" x2="848" y1="482" y2="682" class="day-frame" stroke-width="2"></line> <line x1="898" x2="898" y1="482" y2="682" class="day-frame" stroke-width="2"></line> <line x1="948" x2="948" y1="432" y2="682" class="day-frame" stroke-width="2"></line> <line x1="998" x2="998" y1="432" y2="682" class="day-frame" stroke-width="2"></line> <line x1="1048" x2="1048" y1="432" y2="632" class="day-frame" stroke-width="2"></line> <line x1="898" x2="1098" y1="482" y2="482" class="day-frame" stroke-width="2"></line> <line x1="748" x2="1098" y1="532" y2="532" class="day-frame" stroke-width="2"></line> <line x1="748" x2="1098" y1="582" y2="582" class="day-frame" stroke-width="2"></line> <line x1="748" x2="1048" y1="632" y2="632" class="day-frame" stroke-width="2"></line> <rect width="350" height="350" x="1114" y="382" class="month-box" stroke-width="2"></rect> <text class="month-text" y="557" x="1289" font-size="200" stroke-width="2"> 8</text> <text class="day-text" y="432" x="1464" font-size="12.5" stroke-width="2">  1</text> <text class="day-text" y="482" x="1164" font-size="12.5" stroke-width="2">  2</text> <text class="day-text" y="482" x="1214" font-size="12.5" stroke-width="2">  3</text> <text class="day-text" y="482" x="1264" font-size="12.5" stroke-width="2">  4</text> <text class="day-text" y="482" x="1314" font-size="12.5" stroke-width="2">  5</text> <text class="day-text" y="482" x="1364" font-size="12.5" stroke-width="2">  6</text> <text class="day-text" y="482" x="1414" font-size="12.5" stroke-width="2">  7</text> <text class="day-text" y="482" x="1464" font-size="12.5" stroke-width="2">  8</text> <text class="day-text" y="532" x="1164" font-size="12.5" stroke-width="2">  9</text> <text class="day-text" y="532" x="1214" font-size="12.5" stroke-width="2"> 10</text> <text class="day-text" y="532" x="1264" font-size="12.5" stroke-width="2"> 11</text> <text class="day-text" y="532" x="1314" font-size="12.5" stroke-width="2"> 12</text> <text class="day-text" y="532" x="1364" font-size="12.5" stroke-width="2"> 13</text> <text class="day-text" y="532" x="1414" font-size="12.5" stroke-width="2"> 14</text> <text class="day-text" y="532" x="1464" font-size="12.5" stroke-width="2"> 15</text> <text class="day-text" y="582" x="1164" font-size="12.5" stroke-width="2"> 16</text> <text class="day-text" y="582" x="1214" font-size="12.5" stroke-width="2"> 17</text> <text class="day-text" y="582" x="1264" font-size="12.5" stroke-width="2"> 18</text> <text class="day-text" y="582" x="1314" font-size="12.5" stroke-width="2"> 19</text> <text class="day-text" y="582" x="1364" font-size="12.5" stroke-width="2"> 20</text> <text class="day-text" y="582" x="1414" font-size="12.5" stroke-width="2"> 21</text> <text class="day-text" y="582" x="1464" font-size="12.5" stroke-width="2"> 22</text> <text class="day-text" y="632" x="1164" font-size="12.5" stroke-width="2"> 23</text> <text class="day-text" y="632" x="1214" font-size="12.5" stroke-width="2"> 24</text> <text class="day-text" y="632" x="1264" font-size="12.5" stroke-width="2"> 25</text> <text class="day-text" y="632" x="1314" font-size="12.5" stroke-width="2"> 26</text> <text class="day-text" y="632" x="1364" font-size="12.5" stroke-width="2"> 27</text> <text class="day-text" y="632" x="1414" font-size="12.5" stroke-width="2"> 28</text> <text class="day-text" y="632" x="1464" font-size="12.5" stroke-width="2"> 29</text> <text class="day-text" y="682" x="1164" font-size="12.5" stroke-width="2"> 30</text> <text class="day-text" y="682" x="1214" font-size="12.5" stroke-width="2"> 31</text> <polygon points="1414 432, 1464 432, 1464 682, 1214 682, 1214 732, 1114 732, 1114 482, 1414 482" class="month-frame" stroke-width="2"></polygon> <polygon points="1414 432, 1464 432, 1464 682, 1364 682, 1364 732, 1364 732, 1364 482, 1414 482" class="weekend-frame" stroke-width="2"></polygon> <line x1="1164" x2="1164" y1="482" y2="732" class="day-frame" stroke-width="2"></line> <line x1="1214" x2="1214" y1="482" y2="682" class="day-frame" stroke-width="2"></line> <line x1="1264" x2="1264" y1="482" y2="682" class="day-frame" stroke-width="2"></line> <line x1="1314" x2="1314" y1="482" y2="682" class="day-frame" stroke-width="2"></line> <line x1="1364" x2="1364" y1="482" y2="682" class="day-frame" stroke-width="2"></line> <line x1="1414" x2="1414" y1="482" y2="682" class="day-frame" stroke-width="2"></line> <line x1="1414" x2="1464" y1="482" y2="482" class="day-frame" stroke-width="2"></line> <line x1="1114" x2="1464" y1="532" y2="532" class="day-frame" stroke-width="2"></line> <line x1="1114" x2="1464" y1="582" y2="582" class="day-frame" stroke-width="2"></line> <line x1="1114" x2="1464" y1="632" y2="632" class="day-frame" stroke-width="2"></line> <line x1="1114" x2="1214" y1="682" y2="682" class="day-frame" stroke-width="2"></line> <rect width="350" height="350" x="16" y="748" class="month-box" stroke-width="2"></rect> <text class="month-text" y="923" x="191" font-size="200" stroke-width="2"> 9</text> <text class="day-text" y="798" x="166" font-size="12.5" stroke-width="2">  1</text> <text class="day-text" y="798" x="216" font-size="12.5" stroke-width="2">  2</text> <text class="day-text" y="798" x="266" font-size="12.5" stroke-width="2">  3</text> <text class="day-text" y="798" x="316" font-size="12.5" stroke-width="2">  4</text> <text class="day-text" y="798" x="366" font-size="12.5" stroke-width="2">  5</text> <text class="day-text" y="848" x="66" font-size="12.5" stroke-width="2">  6</text> <text class="day-text" y="848" x="116" font-size="12.5" stroke-width="2">  7</text> <text class="day-text" y="848" x="166" font-size="12.5" stroke-width="2">  8</text> <text class="day-text" y="848" x="216" font-size="12.5" stroke-width="2">  9</text> <text class="day-text" y="848" x="266" font-size="12.5" stroke-width="2"> 10</text> <text class="day-text" y="848" x="316" font-size="12.5" stroke-width="2"> 11</text> <text class="day-text" y="848" x="366" font-size="12.5" stroke-width="2"> 12</text> <text class="day-text" y="898" x="66" font-size="12.5" stroke-width="2"> 13</text> <text class="day-text" y="898" x="116" font-size="12.5" stroke-width="2"> 14</text> <text class="day-text" y="898" x="166" font-size="12.5" stroke-width="2"> 15</text> <text class="day-text" y="898" x="216" font-size="12.5" stroke-width="2"> 16</text> <text class="day-text" y="898" x="266" font-size="12.5" stroke-width="2"> 17</text> <text class="day-text" y="898" x="316" font-size="12.5" stroke-width="2"> 18</text> <text class="day-text" y="898" x="366" font-size="12.5" stroke-width="2"> 19</text> <text class="day-text" y="948" x="66" font-size="12.5" stroke-width="2"> 20</text> <text class="day-text" y="948" x="116" font-size="12.5" stroke-width="2"> 21</text> <text class="day-text" y="948" x="166" font-size="12.5" stroke-width="2"> 22</text> <text class="day-text" y="948" x="216" font-size="12.5" stroke-width="2"> 23</text> <text class="day-text" y="948" x="266" font-size="12.5" stroke-width="2"> 24</text> <text class="day-text" y="948" x="316" font-size="12.5" stroke-width="2"> 25</text> <text class="day-text" y="948" x="366" font-size="12.5" stroke-width="2"> 26</text> <text class="day-text" y="998" x="66" font-size="12.5" stroke-width="2"> 27</text> <text class="day-text" y="998" x="116" font-size="12.5" stroke-width="2"> 28</text> <text class="day-text" y="998" x="166" font-size="12.5" stroke-width="2"> 29</text> <text class="day-text" y="998" x="216" font-size="12.5" stroke-width="2"> 30</text> <polygon points="116 798, 366 798, 366 998, 216 998, 216 1048, 16 1048, 16 848, 116 848" class="month-frame" stroke-width="2"></polygon> <polygon points="266 798, 366 798, 366 998, 266 998, 266 1048, 266 1048, 266 848, 266 848" class="weekend-frame" stroke-width="2"></polygon> <line x1="66" x2="66" y1="848" y2="1048" class="day-frame" stroke-width="2"></line> <line x1="116" x2="116" y1="848" y2="1048" class="day-frame" stroke-width="2"></line> <line x1="166" x2="166" y1="798" y2="1048" class="day-frame" stroke-width="2"></line> <line x1="216" x2="216" y1="798" y2="998" class="day-frame" stroke-width="2"></line> <line x1="266" x2="266" y1="798" y2="998" class="day-frame" stroke-width="2"></line> <line x1="316" x2="316" y1="798" y2="998" class="day-frame" stroke-width="2"></line> <line x1="116" x2="366" y1="848" y2="848" class="day-frame" stroke-width="2"></line> <line x1="16" x2="366" y1="898" y2="898" class="day-frame" stroke-width="2"></line> <line x1="16" x2="366" y1="948" y2="948" class="day-frame" stroke-width="2"></line> <line x1="16" x2="216" y1="998" y2="998" class="day-frame" stroke-width="2"></line> <rect width="350" height="350" x="382" y="748" class="month-box" stroke-width="2"></rect> <text class="month-text" y="923" x="557" font-size="200" stroke-width="2"> 10</text> <text class="day-text" y="798" x="632" font-size="12.5" stroke-width="2">  1</text> <text class="day-text" y="798" x="682" font-size="12.5" stroke-width="2">  2</text> <text class="day-text" y="798" x="732" font-size="12.5" stroke-width="2">  3</text> <text class="day-text" y="848" x="432" font-size="12.5" stroke-width="2">  4</text> <text class="day-text" y="848" x="482" font-size="12.5" stroke-width="2">  5</text> <text class="day-text" y="848" x="532" font-size="12.5" stroke-width="2">  6</text> <text class="day-text" y="848" x="582" font-size="12.5" stroke-width="2">  7</text> <text class="day-text" y="848" x="632" font-size="12.5" stroke-width="2">  8</text> <text class="day-text" y="848" x="682" font-size="12.5" stroke-width="2">  9</text> <text class="day-text" y="848" x="732" font-size="12.5" stroke-width="2"> 10</text> <text class="day-text" y="898" x="432" font-size="12.5" stroke-width="2"> 11</text> <text class="day-text" y="898" x="482" font-size="12.5" stroke-width="2"> 12</text> <text class="day-text" y="898" x="532" font-size="12.5" stroke-width="2"> 13</text> <text class="day-text" y="898" x="582" font-size="12.5" stroke-width="2"> 14</text> <text class="day-text" y="898" x="632" font-size="12.5" stroke-width="2"> 15</text> <text class="day-text" y="898" x="682" font-size="12.5" stroke-width="2"> 16</text> <text class="day-text" y="898" x="732" font-size="12.5" stroke-width="2"> 17</text> <text class="day-text" y="948" x="432" font-size="12.5" stroke-width="2"> 18</text> <text class="day-text" y="948" x="482" font-size="12.5" stroke-width="2"> 19</text> <text class="day-text" y="948" x="532" font-size="12.5" stroke-width="2"> 20</text> <text class="day-text" y="948" x="582" font-size="12.5" stroke-width="2"> 21</text> <text class="day-text" y="948" x="632" font-size="12.5" stroke-width="2"> 22</text> <text class="day-text" y="948" x="682" font-size="12.5" stroke-width="2"> 23</text> <text class="day-text" y="948" x="732" font-size="12.5" stroke-width="2"> 24</text> <text class="day-text" y="998" x="432" font-size="12.5" stroke-width="2"> 25</text> <text class="day-text" y="998" x="482" font-size="12.5" stroke-width="2"> 26</text> <text class="day-text" y="998" x="532" font-size="12.5" stroke-width="2"> 27</text> <text class="day-text" y="998" x="582" font-size="12.5" stroke-width="2"> 28</text> <text class="day-text" y="998" x="632" font-size="12.5" stroke-width="2"> 29</text> <text class="day-text" y="998" x="682" font-size="12.5" stroke-width="2"> 30</text> <text class="day-text" y="998" x="732" font-size="12.5" stroke-width="2"> 31</text> <polygon points="582 798, 732 798, 732 998, 732 998, 732 1048, 382 1048, 382 848, 582 848" class="month-frame" stroke-width="2"></polygon> <polygon points="632 798, 732 798, 732 998, 732 998, 732 1048, 632 1048, 632 848, 632 848" class="weekend-frame" stroke-width="2"></polygon> <line x1="432" x2="432" y1="848" y2="1048" class="day-frame" stroke-width="2"></line> <line x1="482" x2="482" y1="848" y2="1048" class="day-frame" stroke-width="2"></line> <line x1="532" x2="532" y1="848" y2="1048" class="day-frame" stroke-width="2"></line> <line x1="582" x2="582" y1="848" y2="1048" class="day-frame" stroke-width="2"></line> <line x1="632" x2="632" y1="798" y2="1048" class="day-frame" stroke-width="2"></line> <line x1="682" x2="682" y1="798" y2="1048" class="day-frame" stroke-width="2"></line> <line x1="582" x2="732" y1="848" y2="848" class="day-frame" stroke-width="2"></line> <line x1="382" x2="732" y1="898" y2="898" class="day-frame" stroke-width="2"></line> <line x1="382" x2="732" y1="948" y2="948" class="day-frame" stroke-width="2"></line> <line x1="382" x2="732" y1="998" y2="998" class="day-frame" stroke-width="2"></line> <rect width="350" height="350" x="748" y="748" class="month-box" stroke-width="2"></rect> <text class="month-text" y="923" x="923" font-size="200" stroke-width="2"> 11</text> <text class="day-text" y="798" x="798" font-size="12.5" stroke-width="2">  1</text> <text class="day-text" y="798" x="848" font-size="12.5" stroke-width="2">  2</text> <text class="day-text" y="798" x="898" font-size="12.5" stroke-width="2">  3</text> <text class="day-text" y="798" x="948" font-size="12.5" stroke-width="2">  4</text> <text class="day-text" y="798" x="998" font-size="12.5" stroke-width="2">  5</text> <text class="day-text" y="798" x="1048" font-size="12.5" stroke-width="2">  6</text> <text class="day-text" y="798" x="1098" font-size="12.5" stroke-width="2">  7</text> <text class="day-text" y="848" x="798" font-size="12.5" stroke-width="2">  8</text> <text class="day-text" y="848" x="848" font-size="12.5" stroke-width="2">  9</text> <text class="day-text" y="848" x="898" font-size="12.5" stroke-width="2"> 10</text> <text class="day-text" y="848" x="948" font-size="12.5" stroke-width="2"> 11</text> <text class="day-text" y="848" x="998" font-size="12.5" stroke-width="2"> 12</text> <text class="day-text" y="848" x="1048" font-size="12.5" stroke-width="2"> 13</text> <text class="day-text" y="848" x="1098" font-size="12.5" stroke-width="2"> 14</text> <text class="day-text" y="898" x="798" font-size="12.5" stroke-width="2"> 15</text> <text class="day-text" y="898" x="848" font-size="12.5" stroke-width="2"> 16</text> <text class="day-text" y="898" x="898" font-size="12.5" stroke-width="2"> 17</text> <text class="day-text" y="898" x="948" font-size="12.5" stroke-width="2"> 18</text> <text class="day-text" y="898" x="998" font-size="12.5" stroke-width="2"> 19</text> <text class="day-text" y="898" x="1048" font-size="12.5" stroke-width="2"> 20</text> <text class="day-text" y="898" x="1098" font-size="12.5" stroke-width="2"> 21</text> <text class="day-text" y="948" x="798" font-size="12.5" stroke-width="2"> 22</text> <text class="day-text" y="948" x="848" font-size="12.5" stroke-width="2"> 23</text> <text class="day-text" y="948" x="898" font-size="12.5" stroke-width="2"> 24</text> <text class="day-text" y="948" x="948" font-size="12.5" stroke-width="2"> 25</text> <text class="day-text" y="948" x="998" font-size="12.5" stroke-width="2"> 26</text> <text class="day-text" y="948" x="1048" font-size="12.5" stroke-width="2"> 27</text> <text class="day-text" y="948" x="1098" font-size="12.5" stroke-width="2"> 28</text> <text class="day-text" y="998" x="798" font-size="12.5" stroke-width="2"> 29</text> <text class="day-text" y="998" x="848" font-size="12.5" stroke-width="2"> 30</text> <polygon points="748 798, 1098 798, 1098 998, 848 998, 848 1048, 748 1048, 748 848, 748 848" class="month-frame" stroke-width="2"></polygon> <polygon points="998 798, 1098 798, 1098 998, 998 998, 998 1048, 998 1048, 998 848, 998 848" class="weekend-frame" stroke-width="2"></polygon> <line x1="798" x2="798" y1="798" y2="1048" class="day-frame" stroke-width="2"></line> <line x1="848" x2="848" y1="798" y2="998" class="day-frame" stroke-width="2"></line> <line x1="898" x2="898" y1="798" y2="998" class="day-frame" stroke-width="2"></line> <line x1="948" x2="948" y1="798" y2="998" class="day-frame" stroke-width="2"></line> <line x1="998" x2="998" y1="798" y2="998" class="day-frame" stroke-width="2"></line> <line x1="1048" x2="1048" y1="798" y2="998" class="day-frame" stroke-width="2"></line> <line x1="748" x2="1098" y1="848" y2="848" class="day-frame" stroke-width="2"></line> <line x1="748" x2="1098" y1="898" y2="898" class="day-frame" stroke-width="2"></line> <line x1="748" x2="1098" y1="948" y2="948" class="day-frame" stroke-width="2"></line> <line x1="748" x2="848" y1="998" y2="998" class="day-frame" stroke-width="2"></line> <rect width="350" height="350" x="1114" y="748" class="month-box" stroke-width="2"></rect> <text class="month-text" y="923" x="1289" font-size="200" stroke-width="2"> 12</text> <text class="day-text" y="798" x="1264" font-size="12.5" stroke-width="2">  1</text> <text class="day-text" y="798" x="1314" font-size="12.5" stroke-width="2">  2</text> <text class="day-text" y="798" x="1364" font-size="12.5" stroke-width="2">  3</text> <text class="day-text" y="798" x="1414" font-size="12.5" stroke-width="2">  4</text> <text class="day-text" y="798" x="1464" font-size="12.5" stroke-width="2">  5</text> <text class="day-text" y="848" x="1164" font-size="12.5" stroke-width="2">  6</text> <text class="day-text" y="848" x="1214" font-size="12.5" stroke-width="2">  7</text> <text class="day-text" y="848" x="1264" font-size="12.5" stroke-width="2">  8</text> <text class="day-text" y="848" x="1314" font-size="12.5" stroke-width="2">  9</text> <text class="day-text" y="848" x="1364" font-size="12.5" stroke-width="2"> 10</text> <text class="day-text" y="848" x="1414" font-size="12.5" stroke-width="2"> 11</text> <text class="day-text" y="848" x="1464" font-size="12.5" stroke-width="2"> 12</text> <text class="day-text" y="898" x="1164" font-size="12.5" stroke-width="2"> 13</text> <text class="day-text" y="898" x="1214" font-size="12.5" stroke-width="2"> 14</text> <text class="day-text" y="898" x="1264" font-size="12.5" stroke-width="2"> 15</text> <text class="day-text" y="898" x="1314" font-size="12.5" stroke-width="2"> 16</text> <text class="day-text" y="898" x="1364" font-size="12.5" stroke-width="2"> 17</text> <text class="day-text" y="898" x="1414" font-size="12.5" stroke-width="2"> 18</text> <text class="day-text" y="898" x="1464" font-size="12.5" stroke-width="2"> 19</text> <text class="day-text" y="948" x="1164" font-size="12.5" stroke-width="2"> 20</text> <text class="day-text" y="948" x="1214" font-size="12.5" stroke-width="2"> 21</text> <text class="day-text" y="948" x="1264" font-size="12.5" stroke-width="2"> 22</text> <text class="day-text" y="948" x="1314" font-size="12.5" stroke-width="2"> 23</text> <text class="day-text" y="948" x="1364" font-size="12.5" stroke-width="2"> 24</text> <text class="day-text" y="948" x="1414" font-size="12.5" stroke-width="2"> 25</text> <text class="day-text" y="948" x="1464" font-size="12.5" stroke-width="2"> 26</text> <text class="day-text" y="998" x="1164" font-size="12.5" stroke-width="2"> 27</text> <text class="day-text" y="998" x="1214" font-size="12.5" stroke-width="2"> 28</text> <text class="day-text" y="998" x="1264" font-size="12.5" stroke-width="2"> 29</text> <text class="day-text" y="998" x="1314" font-size="12.5" stroke-width="2"> 30</text> <text class="day-text" y="998" x="1364" font-size="12.5" stroke-width="2"> 31</text> <polygon points="1214 798, 1464 798, 1464 998, 1364 998, 1364 1048, 1114 1048, 1114 848, 1214 848" class="month-frame" stroke-width="2"></polygon> <polygon points="1364 798, 1464 798, 1464 998, 1364 998, 1364 1048, 1364 1048, 1364 848, 1364 848" class="weekend-frame" stroke-width="2"></polygon> <line x1="1164" x2="1164" y1="848" y2="1048" class="day-frame" stroke-width="2"></line> <line x1="1214" x2="1214" y1="848" y2="1048" class="day-frame" stroke-width="2"></line> <line x1="1264" x2="1264" y1="798" y2="1048" class="day-frame" stroke-width="2"></line> <line x1="1314" x2="1314" y1="798" y2="1048" class="day-frame" stroke-width="2"></line> <line x1="1364" x2="1364" y1="798" y2="998" class="day-frame" stroke-width="2"></line> <line x1="1414" x2="1414" y1="798" y2="998" class="day-frame" stroke-width="2"></line> <line x1="1214" x2="1464" y1="848" y2="848" class="day-frame" stroke-width="2"></line> <line x1="1114" x2="1464" y1="898" y2="898" class="day-frame" stroke-width="2"></line> <line x1="1114" x2="1464" y1="948" y2="948" class="day-frame" stroke-width="2"></line> <line x1="1114" x2="1364" y1="998" y2="998" class="day-frame" stroke-width="2"></line> <rect width="200" height="12.5" x="16" y="594.5" ry="3.125" rx="3.125" fill="darkcyan" stroke-width="2"></rect> <text class="event-text" y="600.75" x="22.25" font-size="10.416666666666668" stroke-width="2"> PAC</text> <rect width="250" height="12.5" x="382" y="860.5" ry="3.125" rx="3.125" fill="deeppink" stroke-width="2"></rect> <text class="event-text" y="866.75" x="388.25" font-size="10.416666666666668" stroke-width="2"> SRF</text></svg>