<svg width="1480" height="1114" version="1.1" xmlns="http://www.w3.org/2000/svg" xmlns:xlink="http://www.w3.org/1999/xlink" stroke-width="2"> <link xmlns="http://www.w3.org/1999/xhtml" href="calendar.css" rel="stylesheet" type="text/css" stroke-width="2"></link> <script href="calendar.js" type="text/javascript" stroke-width="2"></script> <rect width="1480" height="1114" x="0" y="0" stroke="green" fill="transparent" stroke-width="2"></rect> <rect width="350" height="350" x="16" y="16" class="month-box" stroke-width="2"></rect> <text class="month-text" y="191" x="191" font-size="200" stroke-width="2"> 1</text> <text class="day-text" y="66" x="116" font-size="12.5" stroke-width="2">  1</text> <text class="day-text" y="66" x="166" font-size="12.5" stroke-width="2">  2</text> <text class="day-text" y="66" x="216" font-size="12.5" stroke-width="2">  3</text> <text class="day-text" y="66" x="266" font-size="12.5" stroke-width="2">  4</text> <text class="day-text" y="66" x="316" font-size="12.5" stroke-width="2">  5</text> <text class="day-text" y="66" x="366" font-size="12.5" stroke-width="2">  6</text> <text class="day-text" y="116" x="66" font-size="12.5" stroke-width="2">  7</text> <text class="day-text" y="116" x="116" font-size="12.5" stroke-width="2">  8</text> <text class="day-text" y="116" x="166" font-size="12.5" stroke-width="2">  9</text> <text class="day-text" y="116" x="216" font-size="12.5" stroke-width="2"> 10</text> <text class="day-text" y="116" x="266" font-size="12.5" stroke-width="2"> 11</text> <text class="day-text" y="116" x="316" font-size="12.5" stroke-width="2"> 12</text> <text class="day-text" y="116" x="366" font-size="12.5" stroke-width="2"> 13</text> <text class="day-text" y="166" x="66" font-size="12.5" stroke-width="2"> 14</text> <text class="day-text" y="166" x="116" font-size="12.5" stroke-width="2"> 15</text> <text class="day-text" y="166" x="166" font-size="12.5" stroke-width="2"> 16</text> <text class="day-text" y="166" x="216" font-size="12.5" stroke-width="2"> 17</text> <text class="day-text" y="166" x="266" font-size="12.5" stroke-width="2"> 18</text> <text class="day-text" y="166" x="316" font-size="12.5" stroke-width="2"> 19</text> <text class="day-text" y="166" x="366" font-size="12.5" stroke-width="2"> 20</text> <text class="day-text" y="216" x="66" font-size="12.5" stroke-width="2"> 21</text> <text class="day-text" y="216" x="116" font-size="12.5" stroke-width="2"> 22</text> <text class="day-text" y="216" x="166" font-size="12.5" stroke-width="2"> 23</text> <text class="day-text" y="216" x="216" font-size="12.5" stroke-width="2"> 24</text> <text class="day-text" y="216" x="266" font-size="12.5" stroke-width="2"> 25</text> <text class="day-text" y="216" x="316" font-size="12.5" stroke-width="2"> 26</text> <text class="day-text" y="216" x="366" font-size="12.5" stroke-width="2"> 27</text> <text class="day-text" y="266" x="66" font-size="12.5" stroke-width="2"> 28</text> <text class="day-text" y="266" x="116" font-size="12.5" stroke-width="2"> 29</text> <text class="day-text" y="266" x="166" font-size="12.5" stroke-width="2"> 30</text> <text class="day-text" y="266" x="216" font-size="12.5" stroke-width="2"> 31</text> <polygon points="66 66, 366 66, 366 266, 216 266, 216 316, 16 316, 16 116, 66 116" class="month-frame" stroke-width="2"></polygon> <polygon points="266 66, 366 66, 366 266, 266 266, 266 316, 266 316, 266 116, 266 116" class="weekend-frame" stroke-width="2"></polygon> <line x1="66" x2="66" y1="116" y2="316" class="day-frame" stroke-width="2"></line> <line x1="116" x2="116" y1="66" y2="316" class="day-frame" stroke-width="2"></line> <line x1="166" x2="166" y1="66" y2="316" class="day-frame" stroke-width="2"></line> <line x1="216" x2="216" y1="66" y2="266" class="day-frame" stroke-width="2"></line> <line x1="266" x2="266" y1="66" y2="266" class="day-frame" stroke-width="2"></line> <line x1="316" x2="316" y1="66" y2="266" class="day-frame" stroke-width="2"></line> <line x1="66" x2="366" y1="116" y2="116" class="day-frame" stroke-width="2"></line> <line x1="16" x2="366" y1="166" y2="166" class="day-frame" stroke-width="2"></line> <line x1="16" x2="366" y1="216" y2="216" class="day-frame" stroke-width="2"></line> <line x1="16" x2="216" y1="266" y2="266" class="day-frame" stroke-width="2"></line> <rect width="350" height="350" x="382" y="16" class="month-box" stroke-width="2"></rect> <text class="month-text" y="191" x="557" font-size="200" stroke-width="2"> 2</text> <text class="day-text" y="66" x="632" font-size="12.5" stroke-width="2">  1</text> <text class="day-text" y="66" x="682" font-size="12.5" stroke-width="2">  2</text> <text class="day-text" y="66" x="732" font-size="12.5" stroke-width="2">  3</text> <text class="day-text" y="116" x="432" font-size="12.5" stroke-width="2">  4</text> <text class="day-text" y="116" x="482" font-size="12.5" stroke-width="2">  5</text> <text class="day-text" y="116" x="532" font-size="12.5" stroke-width="2">  6</text> <text class="day-text" y="116" x="582" font-size="12.5" stroke-width="2">  7</text> <text class="day-text" y="116" x="632" font-size="12.5" stroke-width="2">  8</text> <text class="day-text" y="116" x="682" font-size="12.5" stroke-width="2">  9</text> <text class="day-text" y="116" x="732" font-size="12.5" stroke-width="2"> 10</text> <text class="day-text" y="166" x="432" font-size="12.5" stroke-width="2"> 11</text> <text class="day-text" y="166" x="482" font-size="12.5" stroke-width="2"> 12</text> <text class="day-text" y="166" x="532" font-size="12.5" stroke-width="2"> 13</text> <text class="day-text" y="166" x="582" font-size="12.5" stroke-width="2"> 14</text> <text class="day-text" y="166" x="632" font-size="12.5" stroke-width="2"> 15</text> <text class="day-text" y="166" x="682" font-size="12.5" stroke-width="2"> 16</text> <text class="day-text" y="166" x="732" font-size="12.5" stroke-width="2"> 17</text> <text class="day-text" y="216" x="432" font-size="12.5" stroke-width="2"> 18</text> <text class="day-text" y="216" x="482" font-size="12.5" stroke-width="2"> 19</text> <text class="day-text" y="216" x="532" font-size="12.5" stroke-width="2"> 20</text> <text class="day-text" y="216" x="582" font-size="12.5" stroke-width="2"> 21</text> <text class="day-text" y="216" x="632" font-size="12.5" stroke-width="2"> 22</text> <text class="day-text" y="216" x="682" font-size="12.5" stroke-width="2"> 23</text> <text class="day-text" y="216" x="732" font-size="12.5" stroke-width="2"> 24</text> <text class="day-text" y="266" x="432" font-size="12.5" stroke-width="2"> 25</text> <text class="day-text" y="266" x="482" font-size="12.5" stroke-width="2"> 26</text> <text class="day-text" y="266" x="532" font-size="12.5" stroke-width="2"> 27</text> <text class="day-text" y="266" x="582" font-size="12.5" stroke-width="2"> 28</text> <polygon points="582 66, 732 66, 732 266, 582 266, 582 316, 382 316, 382 116, 582 116" class="month-frame" stroke-width="2"></polygon> <polygon points="632 66, 732 66, 732 266, 632 266, 632 316, 632 316, 632 116, 632 116" class="weekend-frame" stroke-width="2"></polygon> <line x1="432" x2="432" y1="116" y2="316" class="day-frame" stroke-width="2"></line> <line x1="482" x2="482" y1="116" y2="316" class="day-frame" stroke-width="2"></line> <line x1="532" x2="532" y1="116" y2="316" class="day-frame" stroke-width="2"></line> <line x1="582" x2="582" y1="116" y2="266" class="day-frame" stroke-width="2"></line> <line x1="632" x2="632" y1="66" y2="266" class="day-frame" stroke-width="2"></line> <line x1="682" x2="682" y1="66" y2="266" class="day-frame" stroke-width="2"></line> <line x1="582" x2="732" y1="116" y2="116" class="day-frame" stroke-width="2"></line> <line x1="382" x2="732" y1="166" y2="166" class="day-frame" stroke-width="2"></line> <line x1="382" x2="732" y1="216" y2="216" class="day-frame" stroke-width="2"></line> <line x1="382" x2="582" y1="266" y2="266" class="day-frame" stroke-width="2"></line> <rect width="350" height="350" x="748" y="16" class="month-box" stroke-width="2"></rect> <text class="month-text" y="191" x="923" font-size="200" stroke-width="2"> 3</text> <text class="day-text" y="66" x="998" font-size="12.5" stroke-width="2">  1</text> <text class="day-text" y="66" x="1048" font-size="12.5" stroke-width="2">  2</text> <text class="day-text" y="66" x="1098" font-size="12.5" stroke-width="2">  3</text> <text class="day-text" y="116" x="798" font-size="12.5" stroke-width="2">  4</text> <text class="day-text" y="116" x="848" font-size="12.5" stroke-width="2">  5</text> <text class="day-text" y="116" x="898" font-size="12.5" stroke-width="2">  6</text> <text class="day-text" y="116" x="948" font-size="12.5" stroke-width="2">  7</text> <text class="day-text" y="116" x="998" font-size="12.5" stroke-width="2">  8</text> <text class="day-text" y="116" x="1048" font-size="12.5" stroke-width="2">  9</text> <text class="day-text" y="116" x="1098" font-size="12.5" stroke-width="2"> 10</text> <text class="day-text" y="166" x="798" font-size="12.5" stroke-width="2"> 11</text> <text class="day-text" y="166" x="848" font-size="12.5" stroke-width="2"> 12</text> <text class="day-text" y="166" x="898" font-size="12.5" stroke-width="2"> 13</text> <text class="day-text" y="166" x="948" font-size="12.5" stroke-width="2"> 14</text> <text class="day-text" y="166" x="998" font-size="12.5" stroke-width="2"> 15</text> <text class="day-text" y="166" x="1048" font-size="12.5" stroke-width="2"> 16</text> <text class="day-text" y="166" x="1098" font-size="12.5" stroke-width="2"> 17</text> <text class="day-text" y="216" x="798" font-size="12.5" stroke-width="2"> 18</text> <text class="day-text" y="216" x="848" font-size="12.5" stroke-width="2"> 19</text> <text class="day-text" y="216" x="898" font-size="12.5" stroke-width="2"> 20</text> <text class="day-text" y="216" x="948" font-size="12.5" stroke-width="2"> 21</text> <text class="day-text" y="216" x="998" font-size="12.5" stroke-width="2"> 22</text> <text class="day-text" y="216" x="1048" font-size="12.5" stroke-width="2"> 23</text> <text class="day-text" y="216" x="1098" font-size="12.5" stroke-width="2"> 24</text> <text class="day-text" y="266" x="798" font-size="12.5" stroke-width="2"> 25</text> <text class="day-text" y="266" x="848" font-size="12.5" stroke-width="2"> 26</text> <text class="day-text" y="266" x="898" font-size="12.5" stroke-width="2"> 27</text> <text class="day-text" y="266" x="948" font-size="12.5" stroke-width="2"> 28</text> <text class="day-text" y="266" x="998" font-size="12.5" stroke-width="2"> 29</text> <text class="day-text" y="266" x="1048" font-size="12.5" stroke-width="2"> 30</text> <text class="day-text" y="266" x="1098" font-size="12.5" stroke-width="2"> 31</text> <polygon points="948 66, 1098 66, 1098 266, 1098 266, 1098 316, 748 316, 748 116, 948 116" class="month-frame" stroke-width="2"></polygon> <polygon points="998 66, 1098 66, 1098 266, 1098 266, 1098 316, 998 316, 998 116, 998 116" class="weekend-frame" stroke-width="2"></polygon> <line x1="798" x2="798" y1="116" y2="316" class="day-frame" stroke-width="2"></line> <line x1="848" x2="848" y1="116" y2="316" class="day-frame" stroke-width="2"></line> <line x1="898" x2="898" y1="116" y2="316" class="day-frame" stroke-width="2"></line> <line x1="948" x2="948" y1="116" y2="316" class="day-frame" stroke-width="2"></line> <line x1="998" x2="998" y1="66" y2="316" class="day-frame" stroke-width="2"></line> <line x1="1048" x2="1048" y1="66" y2="316" class="day-frame" stroke-width="2"></line> <line x1="948" x2="1098" y1="116" y2="116" class="day-frame" stroke-width="2"></line> <line x1="748" x2="1098" y1="166" y2="166" class="day-frame" stroke-width="2"></line> <line x1="748" x2="1098" y1="216" y2="216" class="day-frame" stroke-width="2"></line> <line x1="748" x2="1098" y1="266" y2="266" class="day-frame" stroke-width="2"></line> <rect width="350" height="350" x="1114" y="16" class="month-box" stroke-width="2"></rect> <text class="month-text" y="191" x="1289" font-size="200" stroke-width="2"> 4</text> <text class="day-text" y="66" x="1164" font-size="12.5" stroke-width="2">  1</text> <text class="day-text" y="66" x="1214" font-size="12.5" stroke-width="2">  2</text> <text class="day-text" y="66" x="1264" font-size="12.5" stroke-width="2">  3</text> <text class="day-text" y="66" x="1314" font-size="12.5" stroke-width="2">  4</text> <text class="day-text" y="66" x="1364" font-size="12.5" stroke-width="2">  5</text> <text class="day-text" y="66" x="1414" font-size="12.5" stroke-width="2">  6</text> <text class="day-text" y="66" x="1464" font-size="12.5" stroke-width="2">  7</text> <text class="day-text" y="116" x="1164" font-size="12.5" stroke-width="2">  8</text> <text class="day-text" y="116" x="1214" font-size="12.5" stroke-width="2">  9</text> <text class="day-text" y="116" x="1264" font-size="12.5" stroke-width="2"> 10</text> <text class="day-text" y="116" x="1314" font-size="12.5" stroke-width="2"> 11</text> <text class="day-text" y="116" x="1364" font-size="12.5" stroke-width="2"> 12</text> <text class="day-text" y="116" x="1414" font-size="12.5" stroke-width="2"> 13</text> <text class="day-text" y="116" x="1464" font-size="12.5" stroke-width="2"> 14</text> <text class="day-text" y="166" x="1164" font-size="12.5" stroke-width="2"> 15</text> <text class="day-text" y="166" x="1214" font-size="12.5" stroke-width="2"> 16</text> <text class="day-text" y="166" x="1264" font-size="12.5" stroke-width="2"> 17</text> <text class="day-text" y="166" x="1314" font-size="12.5" stroke-width="2"> 18</text> <text class="day-text" y="166" x="1364" font-size="12.5" stroke-width="2"> 19</text> <text class="day-text" y="166" x="1414" font-size="12.5" stroke-width="2"> 20</text> <text class="day-text" y="166" x="1464" font-size="12.5" stroke-width="2"> 21</text> <text class="day-text" y="216" x="1164" font-size="12.5" stroke-width="2"> 22</text> <text class="day-text" y="216" x="1214" font-size="12.5" stroke-width="2"> 23</text> <text class="day-text" y="216" x="1264" font-size="12.5" stroke-width="2"> 24</text> <text class="day-text" y="216" x="1314" font-size="12.5" stroke-width="2"> 25</text> <text class="day-text" y="216" x="1364" font-size="12.5" stroke-width="2"> 26</text> <text class="day-text" y="216" x="1414" font-size="12.5" stroke-width="2"> 27</text> <text class="day-text" y="216" x="1464" font-size="12.5" stroke-width="2"> 28</text> <text class="day-text" y="266" x="1164" font-size="12.5" stroke-width="2"> 29</text> <text class="day-text" y="266" x="1214" font-size="12.5" stroke-width="2"> 30</text> <polygon points="1114 66, 1464 66, 1464 266, 1214 266, 1214 316, 1114 316, 1114 116, 1114 116" class="month-frame" stroke-width="2"></polygon> <polygon points="1364 66, 1464 66, 1464 266, 1364 266, 1364 316, 1364 316, 1364 116, 1364 116" class="weekend-frame" stroke-width="2"></polygon> <line x1="1164" x2="1164" y1="66" y2="316" class="day-frame" stroke-width="2"></line> <line x1="1214" x2="1214" y1="66" y2="266" class="day-frame" stroke-width="2"></line> <line x1="1264" x2="1264" y1="66" y2="266" class="day-frame" stroke-width="2"></line> <line x1="1314" x2="1314" y1="66" y2="266" class="day-frame" stroke-width="2"></line> <line x1="1364" x2="1364" y1="66" y2="266" class="day-frame" stroke-width="2"></line> <line x1="1414" x2="1414" y1="66" y2="266" class="day-frame" stroke-width="2"></line> <line x1="1114" x2="1464" y1="116" y2="116" class="day-frame" stroke-width="2"></line> <line x1="1114" x2="1464" y1="166" y2="166" class="day-frame" stroke-width="2"></line> <line x1="1114" x2="1464" y1="216" y2="216" class="day-frame" stroke-width="2"></line> <line x1="1114" x2="1214" y1="266" y2="266" class="day-frame" stroke-width="2"></line> <rect width="350" height="350" x="16" y="382" class="month-box" stroke-width="2"></rect> <text class="month-text" y="557" x="191" font-size="200" stroke-width="2"> 5</text> <text class="day-text" y="432" x="166" font-size="12.5" stroke-width="2">  1</text> <text class="day-text" y="432" x="216" font-size="12.5" stroke-width="2">  2</text> <text class="day-text" y="432" x="266" font-size="12.5" stroke-width="2">  3</text> <text class="day-text" y="432" x="316" font-size="12.5" stroke-width="2">  4</text> <text class="day-text" y="432" x="366" font-size="12.5" stroke-width="2">  5</text> <text class="day-text" y="482" x="66" font-size="12.5" stroke-width="2">  6</text> <text class="day-text" y="482" x="116" font-size="12.5" stroke-width="2">  7</text> <text class="day-text" y="482" x="166" font-size="12.5" stroke-width="2">  8</text> <text class="day-text" y="482" x="216" font-size="12.5" stroke-width="2">  9</text> <text class="day-text" y="482" x="266" font-size="12.5" stroke-width="2"> 10</text> <text class="day-text" y="482" x="316" font-size="12.5" stroke-width="2"> 11</text> <text class="day-text" y="482" x="366" font-size="12.5" stroke-width="2"> 12</text> <text class="day-text" y="532" x="66" font-size="12.5" stroke-width="2"> 13</text> <text class="day-text" y="532" x="116" font-size="12.5" stroke-width="2"> 14</text> <text class="day-text" y="532" x="166" font-size="12.5" stroke-width="2"> 15</text> <text class="day-text" y="532" x="216" font-size="12.5" stroke-width="2"> 16</text> <text class="day-text" y="532" x="266" font-size="12.5" stroke-width="2"> 17</text> <text class="day-text" y="532" x="316" font-size="12.5" stroke-width="2"> 18</text> <text class="day-text" y="532" x="366" font-size="12.5" stroke-width="2"> 19</text> <text class="day-text" y="582" x="66" font-size="12.5" stroke-width="2"> 20</text> <text class="day-text" y="582" x="116" font-size="12.5" stroke-width="2"> 21</text> <text class="day-text" y="582" x="166" font-size="12.5" stroke-width="2"> 22</text> <text class="day-text" y="582" x="216" font-size="12.5" stroke-width="2"> 23</text> <text class="day-text" y="582" x="266" font-size="12.5" stroke-width="2"> 24</text> <text class="day-text" y="582" x="316" font-size="12.5" stroke-width="2"> 25</text> <text class="day-text" y="582" x="366" font-size="12.5" stroke-width="2"> 26</text> <text class="day-text" y="632" x="66" font-size="12.5" stroke-width="2"> 27</text> <text class="day-text" y="632" x="116" font-size="12.5" stroke-width="2"> 28</text> <text class="day-text" y="632" x="166" font-size="12.5" stroke-width="2"> 29</text> <text class="day-text" y="632" x="216" font-size="12.5" stroke-width="2"> 30</text> <text class="day-text" y="632" x="266" font-size="12.5" stroke-width="2"> 31</text> <polygon points="116 432, 366 432, 366 632, 266 632, 266 682, 16 682, 16 482, 116 482" class="month-frame" stroke-width="2"></polygon> <polygon points="266 432, 366 432, 366 632, 266 632, 266 682, 266 682, 266 482, 266 482" class="weekend-frame" stroke-width="2"></polygon> <line x1="66" x2="66" y1="482" y2="682" class="day-frame" stroke-width="2"></line> <line x1="116" x2="116" y1="482" y2="682" class="day-frame" stroke-width="2"></line> <line x1="166" x2="166" y1="432" y2="682" class="day-frame" stroke-width="2"></line> <line x1="216" x2="216" y1="432" y2="682" class="day-frame" stroke-width="2"></line> <line x1="266" x2="266" y1="432" y2="632" class="day-frame" stroke-width="2"></line> <line x1="316" x2="316" y1="432" y2="632" class="day-frame" stroke-width="2"></line> <line x1="116" x2="366" y1="482" y2="482" class="day-frame" stroke-width="2"></line> <line x1="16" x2="366" y1="532" y2="532" class="day-frame" stroke-width="2"></line> <line x1="16" x2="366" y1="582" y2="582" class="day-frame" stroke-width="2"></line> <line x1="16" x2="266" y1="632" y2="632" class="day-frame" stroke-width="2"></line> <rect width="350" height="350" x="382" y="382" class="month-box" stroke-width="2"></rect> <text class="month-text" y="557" x="557" font-size="200" stroke-width="2"> 6</text> <text class="day-text" y="432" x="682" font-size="12.5" stroke-width="2">  1</text> <text class="day-text" y="432" x="732" font-size="12.5" stroke-width="2">  2</text> <text class="day-text" y="482" x="432" font-size="12.5" stroke-width="2">  3</text> <text class="day-text" y="482" x="482" font-size="12.5" stroke-width="2">  4</text> <text class="day-text" y="482" x="532" font-size="12.5" stroke-width="2">  5</text> <text class="day-text" y="482" x="582" font-size="12.5" stroke-width="2">  6</text> <text class="day-text" y="482" x="632" font-size="12.5" stroke-width="2">  7</text> <text class="day-text" y="482" x="682" font-size="12.5" stroke-width="2">  8</text> <text class="day-text" y="482" x="732" font-size="12.5" stroke-width="2">  9</text> <text class="day-text" y="532" x="432" font-size="12.5" stroke-width="2"> 10</text> <text class="day-text" y="532" x="482" font-size="12.5" stroke-width="2"> 11</text> <text class="day-text" y="532" x="532" font-size="12.5" stroke-width="2"> 12</text> <text class="day-text" y="532" x="582" font-size="12.5" stroke-width="2"> 13</text> <text class="day-text" y="532" x="632" font-size="12.5" stroke-width="2"> 14</text> <text class="day-text" y="532" x="682" font-size="12.5" stroke-width="2"> 15</text> <text class="day-text" y="532" x="732" font-size="12.5" stroke-width="2"> 16</text> <text class="day-text" y="582" x="432" font-size="12.5" stroke-width="2"> 17</text> <text class="day-text" y="582" x="482" font-size="12.5" stroke-width="2"> 18</text> <text class="day-text" y="582" x="532" font-size="12.5" stroke-width="2"> 19</text> <text class="day-text" y="582" x="582" font-size="12.5" stroke-width="2"> 20</text> <text class="day-text" y="582" x="632" font-size="12.5" stroke-width="2"> 21</text> <text class="day-text" y="582" x="682" font-size="12.5" stroke-width="2"> 22</text> <text class="day-text" y="582" x="732" font-size="12.5" stroke-width="2"> 23</text> <text class="day-text" y="632" x="432" font-size="12.5" stroke-width="2"> 24</text> <text class="day-text" y="632" x="482" font-size="12.5" stroke-width="2"> 25</text> <text class="day-text" y="632" x="532" font-size="12.5" stroke-width="2"> 26</text> <text class="day-text" y="632" x="582" font-size="12.5" stroke-width="2"> 27</text> <text class="day-text" y="632" x="632" font-size="12.5" stroke-width="2"> 28</text> <text class="day-text" y="632" x="682" font-size="12.5" stroke-width="2"> 29</text> <text class="day-text" y="632" x="732" font-size="12.5" stroke-width="2"> 30</text> <polygon points="632 432, 732 432, 732 632, 732 632, 732 682, 382 682, 382 482, 632 482" class="month-frame" stroke-width="2"></polygon> <polygon points="632 432, 732 432, 732 632, 732 632, 732 682, 632 682, 632 482, 632 482" class="weekend-frame" stroke-width="2"></polygon> <line x1="432" x2="432" y1="482" y2="682" class="day-frame" stroke-width="2"></line> <line x1="482" x2="482" y1="482" y2="682" class="day-frame" stroke-width="2"></line> <line x1="532" x2="532" y1="482" y2="682" class="day-frame" stroke-width="2"></line> <line x1="582" x2="582" y1="482" y2="682" class="day-frame" stroke-width="2"></line> <line x1="632" x2="632" y1="482" y2="682" class="day-frame" stroke-width="2"></line> <line x1="682" x2="682" y1="432" y2="682" class="day-frame" stroke-width="2"></line> <line x1="632" x2="732" y1="482" y2="482" class="day-frame" stroke-width="2"></line> <line x1="382" x2="732" y1="532" y2="532" class="day-frame" stroke-width="2"></line> <line x1="382" x2="732" y1="582" y2="582" class="day-frame" stroke-width="2"></line> <line x1="382" x2="732" y1="632" y2="632" class="day-frame" stroke-width="2"></line> <rect width="350" height="350" x="748" y="382" class="month-box" stroke-width="2"></rect> <text class="month-text" y="557" x="923" font-size="200" stroke-width="2"> 7</text> <text class="day-text" y="432" x="798" font-size="12.5" stroke-width="2">  1</text> <text class="day-text" y="432" x="848" font-size="12.5" stroke-width="2">  2</text> <text class="day-text" y="432" x="898" font-size="12.5" stroke-width="2">  3</text> <text class="day-text" y="432" x="948" font-size="12.5" stroke-width="2">  4</text> <text class="day-text" y="432" x="998" font-size="12.5" stroke-width="2">  5</text> <text class="day-text" y="432" x="1048" font-size="12.5" stroke-width="2">  6</text> <text class="day-text" y="432" x="1098" font-size="12.5" stroke-width="2">  7</text> <text class="day-text" y="482" x="798" font-size="12.5" stroke-width="2">  8</text> <text class="day-text" y="482" x="848" font-size="12.5" stroke-width="2">  9</text> <text class="day-text" y="482" x="898" font-size="12.5" stroke-width="2"> 10</text> <text class="day-text" y="482" x="948" font-size="12.5" stroke-width="2"> 11</text> <text class="day-text" y="482" x="998" font-size="12.5" stroke-width="2"> 12</text> <text class="day-text" y="482" x="1048" font-size="12.5" stroke-width="2"> 13</text> <text class="day-text" y="482" x="1098" font-size="12.5" stroke-width="2"> 14</text> <text class="day-text" y="532" x="798" font-size="12.5" stroke-width="2"> 15</text> <text class="day-text" y="532" x="848" font-size="12.5" stroke-width="2"> 16</text> <text class="day-text" y="532" x="898" font-size="12.5" stroke-width="2"> 17</text> <text class="day-text" y="532" x="948" font-size="12.5" stroke-width="2"> 18</text> <text class="day-text" y="532" x="998" font-size="12.5" stroke-width="2"> 19</text> <text class="day-text" y="532" x="1048" font-size="12.5" stroke-width="2"> 20</text> <text class="day-text" y="532" x="1098" font-size="12.5" stroke-width="2"> 21</text> <text class="day-text" y="582" x="798" font-size="12.5" stroke-width="2"> 22</text> <text class="day-text" y="582" x="848" font-size="12.5" stroke-width="2"> 23</text> <text class="day-text" y="582" x="898" font-size="12.5" stroke-width="2"> 24</text> <text class="day-text" y="582" x="948" font-size="12.5" stroke-width="2"> 25</text> <text class="day-text" y="582" x="998" font-size="12.5" stroke-width="2"> 26</text> <text class="day-text" y="582" x="1048" font-size="12.5" stroke-width="2"> 27</text> <text class="day-text" y="582" x="1098" font-size="12.5" stroke-width="2"> 28</text> <text class="day-text" y="632" x="798" font-size="12.5" stroke-width="2"> 29</text> <text class="day-text" y="632" x="848" font-size="12.5" stroke-width="2"> 30</text> <text class="day-text" y="632" x="898" font-size="12.5" stroke-width="2"> 31</text> <polygon points="748 432, 1098 432, 1098 632, 898 632, 898 682, 748 682, 748 482, 748 482" class="month-frame" stroke-width="2"></polygon> <polygon points="998 432, 1098 432, 1098 632, 998 632, 998 682, 998 682, 998 482, 998 482" class="weekend-frame" stroke-width="2"></polygon> <line x1="798" x2="798" y1="432" y2="682" class="day-frame" stroke-width="2"></line> <line x1="848" x2="848" y1="432" y2="682" class="day-frame" stroke-width="2"></line> <line x1="898" x2="898" y1="432" y2="632" class="day-frame" stroke-width="2"></line> <line x1="948" x2="948" y1="432" y2="632" class="day-frame" stroke-width="2"></line> <line x1="998" x2="998" y1="432" y2="632" class="day-frame" stroke-width="2"></line> <line x1="1048" x2="1048" y1="432" y2="632" class="day-frame" stroke-width="2"></line> <line x1="748" x2="1098" y1="482" y2="482" class="day-frame" stroke-width="2"></line> <line x1="748" x2="1098" y1="532" y2="532" class="day-frame" stroke-width="2"></line> <line x1="748" x2="1098" y1="582" y2="582" class="day-frame" stroke-width="2"></line> <line x1="748" x2="898" y1="632" y2="632" class="day-frame" stroke-width="2"></line> <rect width="350" height="350" x="1114" y="382" class="month-box" stroke-width="2"></rect> <text class="month-text" y="557" x="1289" font-size="200" stroke-width="2"> 8</text> <text class="day-text" y="432" x="1314" font-size="12.5" stroke-width="2">  1</text> <text class="day-text" y="432" x="1364" font-size="12.5" stroke-width="2">  2</text> <text class="day-text" y="432" x="1414" font-size="12.5" stroke-width="2">  3</text> <text class="day-text" y="432" x="1464" font-size="12.5" stroke-width="2">  4</text> <text class="day-text" y="482" x="1164" font-size="12.5" stroke-width="2">  5</text> <text class="day-text" y="482" x="1214" font-size="12.5" stroke-width="2">  6</text> <text class="day-text" y="482" x="1264" font-size="12.5" stroke-width="2">  7</text> <text class="day-text" y="482" x="1314" font-size="12.5" stroke-width="2">  8</text> <text class="day-text" y="482" x="1364" font-size="12.5" stroke-width="2">  9</text> <text class="day-text" y="482" x="1414" font-size="12.5" stroke-width="2"> 10</text> <text class="day-text" y="482" x="1464" font-size="12.5" stroke-width="2"> 11</text> <text class="day-text" y="532" x="1164" font-size="12.5" stroke-width="2"> 12</text> <text class="day-text" y="532" x="1214" font-size="12.5" stroke-width="2"> 13</text> <text class="day-text" y="532" x="1264" font-size="12.5" stroke-width="2"> 14</text> <text class="day-text" y="532" x="1314" font-size="12.5" stroke-width="2"> 15</text> <text class="day-text" y="532" x="1364" font-size="12.5" stroke-width="2"> 16</text> <text class="day-text" y="532" x="1414" font-size="12.5" stroke-width="2"> 17</text> <text class="day-text" y="532" x="1464" font-size="12.5" stroke-width="2"> 18</text> <text class="day-text" y="582" x="1164" font-size="12.5" stroke-width="2"> 19</text> <text class="day-text" y="582" x="1214" font-size="12.5" stroke-width="2"> 20</text> <text class="day-text" y="582" x="1264" font-size="12.5" stroke-width="2"> 21</text> <text class="day-text" y="582" x="1314" font-size="12.5" stroke-width="2"> 22</text> <text class="day-text" y="582" x="1364" font-size="12.5" stroke-width="2"> 23</text> <text class="day-text" y="582" x="1414" font-size="12.5" stroke-width="2"> 24</text> <text class="day-text" y="582" x="1464" font-size="12.5" stroke-width="2"> 25</text> <text class="day-text" y="632" x="1164" font-size="12.5" stroke-width="2"> 26</text> <text class="day-text" y="632" x="1214" font-size="12.5" stroke-width="2"> 27</text> <text class="day-text" y="632" x="1264" font-size="12.5" stroke-width="2"> 28</text> <text class="day-text" y="632" x="1314" font-size="12.5" stroke-width="2"> 29</text> <text class="day-text" y="632" x="1364" font-size="12.5" stroke-width="2"> 30</text> <text class="day-text" y="632" x="1414" font-size="12.5" stroke-width="2"> 31</text> <polygon points="1264 432, 1464 432, 1464 632, 1414 632, 1414 682, 1114 682, 1114 482, 1264 482" class="month-frame" stroke-width="2"></polygon> <polygon points="1364 432, 1464 432, 1464 632, 1414 632, 1414 682, 1364 682, 1364 482, 1364 482" class="weekend-frame" stroke-width="2"></polygon> <line x1="1164" x2="1164" y1="482" y2="682" class="day-frame" stroke-width="2"></line> <line x1="1214" x2="1214" y1="482" y2="682" class="day-frame" stroke-width="2"></line> <line x1="1264" x2="1264" y1="482" y2="682" class="day-frame" stroke-width="2"></line> <line x1="1314" x2="1314" y1="432" y2="682" class="day-frame" stroke-width="2"></line> <line x1="1364" x2="1364" y1="432" y2="682" class="day-frame" stroke-width="2"></line> <line x1="1414" x2="1414" y1="432" y2="632" class="day-frame" stroke-width="2"></line> <line x1="1264" x2="1464" y1="482" y2="482" class="day-frame" stroke-width="2"></line> <line x1="1114" x2="1464" y1="532" y2="532" class="day-frame" stroke-width="2"></line> <line x1="1114" x2="1464" y1="582" y2="582" class="day-frame" stroke-width="2"></line> <line x1="1114" x2="1414" y1="632" y2="632" class="day-frame" stroke-width="2"></line> <rect width="350" height="350" x="16" y="748" class="month-box" stroke-width="2"></rect> <text class="month-text" y="923" x="191" font-size="200" stroke-width="2"> 9</text> <text class="day-text" y="798" x="366" font-size="12.5" stroke-width="2">  1</text> <text class="day-text" y="848" x="66" font-size="12.5" stroke-width="2">  2</text> <text class="day-text" y="848" x="116" font-size="12.5" stroke-width="2">  3</text> <text class="day-text" y="848" x="166" font-size="12.5" stroke-width="2">  4</text> <text class="day-text" y="848" x="216" font-size="12.5" stroke-width="2">  5</text> <text class="day-text" y="848" x="266" font-size="12.5" stroke-width="2">  6</text> <text class="day-text" y="848" x="316" font-size="12.5" stroke-width="2">  7</text> <text class="day-text" y="848" x="366" font-size="12.5" stroke-width="2">  8</text> <text class="day-text" y="898" x="66" font-size="12.5" stroke-width="2">  9</text> <text class="day-text" y="898" x="116" font-size="12.5" stroke-width="2"> 10</text> <text class="day-text" y="898" x="166" font-size="12.5" stroke-width="2"> 11</text> <text class="day-text" y="898" x="216" font-size="12.5" stroke-width="2"> 12</text> <text class="day-text" y="898" x="266" font-size="12.5" stroke-width="2"> 13</text> <text class="day-text" y="898" x="316" font-size="12.5" stroke-width="2"> 14</text> <text class="day-text" y="898" x="366" font-size="12.5" stroke-width="2"> 15</text> <text class="day-text" y="948" x="66" font-size="12.5" stroke-width="2"> 16</text> <text class="day-text" y="948" x="116" font-size="12.5" stroke-width="2"> 17</text> <text class="day-text" y="948" x="166" font-size="12.5" stroke-width="2"> 18</text> <text class="day-text" y="948" x="216" font-size="12.5" stroke-width="2"> 19</text> <text class="day-text" y="948" x="266" font-size="12.5" stroke-width="2"> 20</text> <text class="day-text" y="948" x="316" font-size="12.5" stroke-width="2"> 21</text> <text class="day-text" y="948" x="366" font-size="12.5" stroke-width="2"> 22</text> <text class="day-text" y="998" x="66" font-size="12.5" stroke-width="2"> 23</text> <text class="day-text" y="998" x="116" font-size="12.5" stroke-width="2"> 24</text> <text class="day-text" y="998" x="166" font-size="12.5" stroke-width="2"> 25</text> <text class="day-text" y="998" x="216" font-size="12.5" stroke-width="2"> 26</text> <text class="day-text" y="998" x="266" font-size="12.5" stroke-width="2"> 27</text> <text class="day-text" y="998" x="316" font-size="12.5" stroke-width="2"> 28</text> <text class="day-text" y="998" x="366" font-size="12.5" stroke-width="2"> 29</text> <text class="day-text" y="1048" x="66" font-size="12.5" stroke-width="2"> 30</text> <polygon points="316 798, 366 798, 366 1048, 66 1048, 66 1098, 16 1098, 16 848, 316 848" class="month-frame" stroke-width="2"></polygon> <polygon points="316 798, 366 798, 366 1048, 266 1048, 266 1098, 266 1098, 266 848, 316 848" class="weekend-frame" stroke-width="2"></polygon> <line x1="66" x2="66" y1="848" y2="1048" class="day-frame" stroke-width="2"></line> <line x1="116" x2="116" y1="848" y2="1048" class="day-frame" stroke-width="2"></line> <line x1="166" x2="166" y1="848" y2="1048" class="day-frame" stroke-width="2"></line> <line x1="216" x2="216" y1="848" y2="1048" class="day-frame" stroke-width="2"></line> <line x1="266" x2="266" y1="848" y2="1048" class="day-frame" stroke-width="2"></line> <line x1="316" x2="316" y1="848" y2="1048" class="day-frame" stroke-width="2"></line> <line x1="316" x2="366" y1="848" y2="848" class="day-frame" stroke-width="2"></line> <line x1="16" x2="366" y1="898" y2="898" class="day-frame" stroke-width="2"></line> <line x1="16" x2="366" y1="948" y2="948" class="day-frame" stroke-width="2"></line> <line x1="16" x2="366" y1="998" y2="998" class="day-frame" stroke-width="2"></line> <line x1="16" x2="66" y1="1048" y2="1048" class="day-frame" stroke-width="2"></line> <rect width="350" height="350" x="382" y="748" class="month-box" stroke-width="2"></rect> <text class="month-text" y="923" x="557" font-size="200" stroke-width="2"> 10</text> <text class="day-text" y="798" x="482" font-size="12.5" stroke-width="2">  1</text> <text class="day-text" y="798" x="532" font-size="12.5" stroke-width="2">  2</text> <text class="day-text" y="798" x="582" font-size="12.5" stroke-width="2">  3</text> <text class="day-text" y="798" x="632" font-size="12.5" stroke-width="2">  4</text> <text class="day-text" y="798" x="682" font-size="12.5" stroke-width="2">  5</text> <text class="day-text" y="798" x="732" font-size="12.5" stroke-width="2">  6</text> <text class="day-text" y="848" x="432" font-size="12.5" stroke-width="2">  7</text> <text class="day-text" y="848" x="482" font-size="12.5" stroke-width="2">  8</text> <text class="day-text" y="848" x="532" font-size="12.5" stroke-width="2">  9</text> <text class="day-text" y="848" x="582" font-size="12.5" stroke-width="2"> 10</text> <text class="day-text" y="848" x="632" font-size="12.5" stroke-width="2"> 11</text> <text class="day-text" y="848" x="682" font-size="12.5" stroke-width="2"> 12</text> <text class="day-text" y="848" x="732" font-size="12.5" stroke-width="2"> 13</text> <text class="day-text" y="898" x="432" font-size="12.5" stroke-width="2"> 14</text> <text class="day-text" y="898" x="482" font-size="12.5" stroke-width="2"> 15</text> <text class="day-text" y="898" x="532" font-size="12.5" stroke-width="2"> 16</text> <text class="day-text" y="898" x="582" font-size="12.5" stroke-width="2"> 17</text> <text class="day-text" y="898" x="632" font-size="12.5" stroke-width="2"> 18</text> <text class="day-text" y="898" x="682" font-size="12.5" stroke-width="2"> 19</text> <text class="day-text" y="898" x="732" font-size="12.5" stroke-width="2"> 20</text> <text class="day-text" y="948" x="432" font-size="12.5" stroke-width="2"> 21</text> <text class="day-text" y="948" x="482" font-size="12.5" stroke-width="2"> 22</text> <text class="day-text" y="948" x="532" font-size="12.5" stroke-width="2"> 23</text> <text class="day-text" y="948" x="582" font-size="12.5" stroke-width="2"> 24</text> <text class="day-text" y="948" x="632" font-size="12.5" stroke-width="2"> 25</text> <text class="day-text" y="948" x="682" font-size="12.5" stroke-width="2"> 26</text> <text class="day-text" y="948" x="732" font-size="12.5" stroke-width="2"> 27</text> <text class="day-text" y="998" x="432" font-size="12.5" stroke-width="2"> 28</text> <text class="day-text" y="998" x="482" font-size="12.5" stroke-width="2"> 29</text> <text class="day-text" y="998" x="532" font-size="12.5" stroke-width="2"> 30</text> <text class="day-text" y="998" x="582" font-size="12.5" stroke-width="2"> 31</text> <polygon points="432 798, 732 798, 732 998, 582 998, 582 1048, 382 1048, 382 848, 432 848" class="month-frame" stroke-width="2"></polygon> <polygon points="632 798, 732 798, 732 998, 632 998, 632 1048, 632 1048, 632 848, 632 848" class="weekend-frame" stroke-width="2"></polygon> <line x1="432" x2="432" y1="848" y2="1048" class="day-frame" stroke-width="2"></line> <line x1="482" x2="482" y1="798" y2="1048" class="day-frame" stroke-width="2"></line> <line x1="532" x2="532" y1="798" y2="1048" class="day-frame" stroke-width="2"></line> <line x1="582" x2="582" y1="798" y2="998" class="day-frame" stroke-width="2"></line> <line x1="632" x2="632" y1="798" y2="998" class="day-frame" stroke-width="2"></line> <line x1="682" x2="682" y1="798" y2="998" class="day-frame" stroke-width="2"></line> <line x1="432" x2="732" y1="848" y2="848" class="day-frame" stroke-width="2"></line> <line x1="382" x2="732" y1="898" y2="898" class="day-frame" stroke-width="2"></line> <line x1="382" x2="732" y1="948" y2="948" class="day-frame" stroke-width="2"></line> <line x1="382" x2="582" y1="998" y2="998" class="day-frame" stroke-width="2"></line> <rect width="350" height="350" x="748" y="748" class="month-box" stroke-width="2"></rect> <text class="month-text" y="923" x="923" font-size="200" stroke-width="2"> 11</text> <text class="day-text" y="798" x="998" font-size="12.5" stroke-width="2">  1</text> <text class="day-text" y="798" x="1048" font-size="12.5" stroke-width="2">  2</text> <text class="day-text" y="798" x="1098" font-size="12.5" stroke-width="2">  3</text> <text class="day-text" y="848" x="798" font-size="12.5" stroke-width="2">  4</text> <text class="day-text" y="848" x="848" font-size="12.5" stroke-width="2">  5</text> <text class="day-text" y="848" x="898" font-size="12.5" stroke-width="2">  6</text> <text class="day-text" y="848" x="948" font-size="12.5" stroke-width="2">  7</text> <text class="day-text" y="848" x="998" font-size="12.5" stroke-width="2">  8</text> <text class="day-text" y="848" x="1048" font-size="12.5" stroke-width="2">  9</text> <text class="day-text" y="848" x="1098" font-size="12.5" stroke-width="2"> 10</text> <text class="day-text" y="898" x="798" font-size="12.5" stroke-width="2"> 11</text> <text class="day-text" y="898" x="848" font-size="12.5" stroke-width="2"> 12</text> <text class="day-text" y="898" x="898" font-size="12.5" stroke-width="2"> 13</text> <text class="day-text" y="898" x="948" font-size="12.5" stroke-width="2"> 14</text> <text class="day-text" y="898" x="998" font-size="12.5" stroke-width="2"> 15</text> <text class="day-text" y="898" x="1048" font-size="12.5" stroke-width="2"> 16</text> <text class="day-text" y="898" x="1098" font-size="12.5" stroke-width="2"> 17</text> <text class="day-text" y="948" x="798" font-size="12.5" stroke-width="2"> 18</text> <text class="day-text" y="948" x="848" font-size="12.5" stroke-width="2"> 19</text> <text class="day-text" y="948" x="898" font-size="12.5" stroke-width="2"> 20</text> <text class="day-text" y="948" x="948" font-size="12.5" stroke-width="2"> 21</text> <text class="day-text" y="948" x="998" font-size="12.5" stroke-width="2"> 22</text> <text class="day-text" y="948" x="1048" font-size="12.5" stroke-width="2"> 23</text> <text class="day-text" y="948" x="1098" font-size="12.5" stroke-width="2"> 24</text> <text class="day-text" y="998" x="798" font-size="12.5" stroke-width="2"> 25</text> <text class="day-text" y="998" x="848" font-size="12.5" stroke-width="2"> 26</text> <text class="day-text" y="998" x="898" font-size="12.5" stroke-width="2"> 27</text> <text class="day-text" y="998" x="948" font-size="12.5" stroke-width="2"> 28</text> <text class="day-text" y="998" x="998" font-size="12.5" stroke-width="2"> 29</text> <text class="day-text" y="998" x="1048" font-size="12.5" stroke-width="2"> 30</text> <polygon points="948 798, 1098 798, 1098 998, 1048 998, 1048 1048, 748 1048, 748 848, 948 848" class="month-frame" stroke-width="2"></polygon> <polygon points="998 798, 1098 798, 1098 998, 1048 998, 1048 1048, 998 1048, 998 848, 998 848" class="weekend-frame" stroke-width="2"></polygon> <line x1="798" x2="798" y1="848" y2="1048" class="day-frame" stroke-width="2"></line> <line x1="848" x2="848" y1="848" y2="1048" class="day-frame" stroke-width="2"></line> <line x1="898" x2="898" y1="848" y2="1048" class="day-frame" stroke-width="2"></line> <line x1="948" x2="948" y1="848" y2="1048" class="day-frame" stroke-width="2"></line> <line x1="998" x2="998" y1="798" y2="1048" class="day-frame" stroke-width="2"></line> <line x1="1048" x2="1048" y1="798" y2="998" class="day-frame" stroke-width="2"></line> <line x1="948" x2="1098" y1="848" y2="848" class="day-frame" stroke-width="2"></line> <line x1="748" x2="1098" y1="898" y2="898" class="day-frame" stroke-width="2"></line> <line x1="748" x2="1098" y1="948" y2="948" class="day-frame" stroke-width="2"></line> <line x1="748" x2="1048" y1="998" y2="998" class="day-frame" stroke-width="2"></line> <rect width="350" height="350" x="1114" y="748" class="month-box" stroke-width="2"></rect> <text class="month-text" y="923" x="1289" font-size="200" stroke-width="2"> 12</text> <text class="day-text" y="798" x="1464" font-size="12.5" stroke-width="2">  1</text> <text class="day-text" y="848" x="1164" font-size="12.5" stroke-width="2">  2</text> <text class="day-text" y="848" x="1214" font-size="12.5" stroke-width="2">  3</text> <text class="day-text" y="848" x="1264" font-size="12.5" stroke-width="2">  4</text> <text class="day-text" y="848" x="1314" font-size="12.5" stroke-width="2">  5</text> <text class="day-text" y="848" x="1364" font-size="12.5" stroke-width="2">  6</text> <text class="day-text" y="848" x="1414" font-size="12.5" stroke-width="2">  7</text> <text class="day-text" y="848" x="1464" font-size="12.5" stroke-width="2">  8</text> <text class="day-text" y="898" x="1164" font-size="12.5" stroke-width="2">  9</text> <text class="day-text" y="898" x="1214" font-size="12.5" stroke-width="2"> 10</text> <text class="day-text" y="898" x="1264" font-size="12.5" stroke-width="2"> 11</text> <text class="day-text" y="898" x="1314" font-size="12.5" stroke-width="2"> 12</text> <text class="day-text" y="898" x="1364" font-size="12.5" stroke-width="2"> 13</text> <text class="day-text" y="898" x="1414" font-size="12.5" stroke-width="2"> 14</text> <text class="day-text" y="898" x="1464" font-size="12.5" stroke-width="2"> 15</text> <text class="day-text" y="948" x="1164" font-size="12.5" stroke-width="2"> 16</text> <text class="day-text" y="948" x="1214" font-size="12.5" stroke-width="2"> 17</text> <text class="day-text" y="948" x="1264" font-size="12.5" stroke-width="2"> 18</text> <text class="day-text" y="948" x="1314" font-size="12.5" stroke-width="2"> 19</text> <text class="day-text" y="948" x="1364" font-size="12.5" stroke-width="2"> 20</text> <text class="day-text" y="948" x="1414" font-size="12.5" stroke-width="2"> 21</text> <text class="day-text" y="948" x="1464" font-size="12.5" stroke-width="2"> 22</text> <text class="day-text" y="998" x="1164" font-size="12.5" stroke-width="2"> 23</text> <text class="day-text" y="998" x="1214" font-size="12.5" stroke-width="2"> 24</text> <text class="day-text" y="998" x="1264" font-size="12.5" stroke-width="2"> 25</text> <text class="day-text" y="998" x="1314" font-size="12.5" stroke-width="2"> 26</text> <text class="day-text" y="998" x="1364" font-size="12.5" stroke-width="2"> 27</text> <text class="day-text" y="998" x="1414" font-size="12.5" stroke-width="2"> 28</text> <text class="day-text" y="998" x="1464" font-size="12.5" stroke-width="2"> 29</text> <text class="day-text" y="1048" x="1164" font-size="12.5" stroke-width="2"> 30</text> <text class="day-text" y="1048" x="1214" font-size="12.5" stroke-width="2"> 31</text> <polygon points="1414 798, 1464 798, 1464 1048, 1214 1048, 1214 1098, 1114 1098, 1114 848, 1414 848" class="month-frame" stroke-width="2"></polygon> <polygon points="1414 798, 1464 798, 1464 1048, 1364 1048, 1364 1098, 1364 1098, 1364 848, 1414 848" class="weekend-frame" stroke-width="2"></polygon> <line x1="1164" x2="1164" y1="848" y2="1098" class="day-frame" stroke-width="2"></line> <line x1="1214" x2="1214" y1="848" y2="1048" class="day-frame" stroke-width="2"></line> <line x1="1264" x2="1264" y1="848" y2="1048" class="day-frame" stroke-width="2"></line> <line x1="1314" x2="1314" y1="848" y2="1048" class="day-frame" stroke-width="2"></line> <line x1="1364" x2="1364" y1="848" y2="1048" class="day-frame" stroke-width="2"></line> <line x1="1414" x2="1414" y1="848" y2="1048" class="day-frame" stroke-width="2"></line> <line x1="1414" x2="1464" y1="848" y2="848" class="day-frame" stroke-width="2"></line> <line x1="1114" x2="1464" y1="898" y2="898" class="day-frame" stroke-width="2"></line> <line x1="1114" x2="1464" y1="948" y2="948" class="day-frame" stroke-width="2"></line> <line x1="1114" x2="1464" y1="998" y2="998" class="day-frame" stroke-width="2"></line> <line x1="1114" x2="1214" y1="1048" y2="1048" class="day-frame" stroke-width="2"></line> <rect width="250" height="12.5" x="16" y="544.5" ry="3.125" rx="3.125" fill="darkcyan" stroke-width="2"></rect> <rect width="50" height="12.5" x="316" y="494.5" ry="3.125" rx="3.125" fill="darkcyan" stroke-width="2"></rect> <text class="event-text" y="500.75" x="322.25" font-size="10.416666666666668" stroke-width="2"> IPAC</text> <rect width="250" height="12.5" x="382" y="544.5" ry="3.125" rx="3.125" fill="deeppink" stroke-width="2"></rect> <text class="event-text" y="550.75" x="388.25" font-size="10.416666666666668" stroke-width="2"> COOL</text> <rect width="250" height="12.5" x="1114" y="644.5" ry="3.125" rx="3.125" fill="dimgray" stroke-width="2"></rect> <text class="event-text" y="650.75" x="1120.25" font-size="10.416666666666668" stroke-width="2"> FEL</text> <rect width="250" height="12.5" x="16" y="910.5" ry="3.125" rx="3.125" fill="forestgreen" stroke-width="2"></rect> <text class="event-text" y="916.75" x="22.25" font-size="10.416666666666668" stroke-width="2"> ERL</text> <rect width="200" height="12.5" x="16" y="960.5" ry="3.125" rx="3.125" fill="indianred" stroke-width="2"></rect> <text class="event-text" y="966.75" x="22.25" font-size="10.416666666666668" stroke-width="2"> IBIC</text> <rect width="250" height="12.5" x="16" y="973.0" ry="3.125" rx="3.125" fill="lightsalmon" stroke-width="2"></rect> <text class="event-text" y="979.25" x="22.25" font-size="10.416666666666668" stroke-width="2"> CYCLOTRONS</text> <rect width="250" height="12.5" x="16" y="1010.5" ry="3.125" rx="3.125" fill="olive" stroke-width="2"></rect> <text class="event-text" y="1016.75" x="22.25" font-size="10.416666666666668" stroke-width="2"> SRF</text> <rect width="250" height="12.5" x="16" y="1060.5" ry="3.125" rx="3.125" fill="orange" stroke-width="2"></rect> <rect width="50" height="12.5" x="316" y="1010.5" ry="3.125" rx="3.125" fill="orange" stroke-width="2"></rect> <text class="event-text" y="1016.75" x="322.25" font-size="10.416666666666668" stroke-width="2"> NAPAC</text> <rect width="250" height="12.5" x="382" y="860.5" ry="3.125" rx="3.125" fill="nil" stroke-width="2"></rect> <rect width="50" height="12.5" x="682" y="810.5" ry="3.125" rx="3.125" fill="nil" stroke-width="2"></rect> <text class="event-text" y="816.75" x="688.25" font-size="10.416666666666668" stroke-width="2"> ICALEPCS</text></svg>